<svg xmlns="http://www.w3.org/2000/svg" width="503.02" height="503.02" viewBox="0 0 503.02 503.02" xml:space="preserve">
  <path fill="#fff" d="m491.61 75.64-64.23-64.23a38.93 38.93 0 0 0-55.06 0L251.51 132.22 130.69 11.41a38.93 38.93 0 0 0-55.06 0L11.4 75.64a38.93 38.93 0 0 0 0 55.06L132.22 251.5 11.4 372.33a38.93 38.93 0 0 0 0 55.05l64.24 64.23a38.93 38.93 0 0 0 55.05 0L251.51 370.8 372.33 491.6a38.93 38.93 0 0 0 55.06 0l64.23-64.23a38.93 38.93 0 0 0 0-55.05L370.79 251.5 491.61 130.7a38.93 38.93 0 0 0 0-55.06z"/>
</svg>
