<svg xmlns="http://www.w3.org/2000/svg" width="850" height="430" viewBox="0 0 850 430">
  <g id="Group_3733" data-name="Group 3733" transform="translate(-1021 -365)">
    <rect id="Rectangle_182" data-name="Rectangle 182" width="2" height="30" transform="translate(1127 365)" fill="#777d89" opacity="0.1"/>
    <rect id="Rectangle_183" data-name="Rectangle 183" width="2" height="30" transform="translate(1127 445)" fill="#777d89" opacity="0.1"/>
    <rect id="Rectangle_184" data-name="Rectangle 184" width="2" height="30" transform="translate(1127 525)" fill="#777d89" opacity="0.1"/>
    <rect id="Rectangle_185" data-name="Rectangle 185" width="2" height="30" transform="translate(1127 605)" fill="#777d89" opacity="0.1"/>
    <rect id="Rectangle_186" data-name="Rectangle 186" width="2" height="30" transform="translate(1127 685)" fill="#777d89" opacity="0.1"/>
    <rect id="Rectangle_187" data-name="Rectangle 187" width="2" height="30" transform="translate(1127 765)" fill="#777d89" opacity="0.1"/>
    <rect id="Rectangle_182-2" data-name="Rectangle 182" width="2" height="30" transform="translate(1339 365)" fill="#777d89" opacity="0.1"/>
    <rect id="Rectangle_183-2" data-name="Rectangle 183" width="2" height="30" transform="translate(1339 445)" fill="#777d89" opacity="0.1"/>
    <rect id="Rectangle_184-2" data-name="Rectangle 184" width="2" height="30" transform="translate(1339 525)" fill="#777d89" opacity="0.1"/>
    <rect id="Rectangle_185-2" data-name="Rectangle 185" width="2" height="30" transform="translate(1339 605)" fill="#777d89" opacity="0.1"/>
    <rect id="Rectangle_186-2" data-name="Rectangle 186" width="2" height="30" transform="translate(1339 685)" fill="#777d89" opacity="0.1"/>
    <rect id="Rectangle_187-2" data-name="Rectangle 187" width="2" height="30" transform="translate(1339 765)" fill="#777d89" opacity="0.1"/>
    <rect id="Rectangle_182-3" data-name="Rectangle 182" width="2" height="30" transform="translate(1551 365)" fill="#777d89" opacity="0.1"/>
    <rect id="Rectangle_183-3" data-name="Rectangle 183" width="2" height="30" transform="translate(1551 445)" fill="#777d89" opacity="0.1"/>
    <rect id="Rectangle_184-3" data-name="Rectangle 184" width="2" height="30" transform="translate(1551 525)" fill="#777d89" opacity="0.1"/>
    <rect id="Rectangle_185-3" data-name="Rectangle 185" width="2" height="30" transform="translate(1551 605)" fill="#777d89" opacity="0.1"/>
    <rect id="Rectangle_186-3" data-name="Rectangle 186" width="2" height="30" transform="translate(1551 685)" fill="#777d89" opacity="0.1"/>
    <rect id="Rectangle_187-3" data-name="Rectangle 187" width="2" height="30" transform="translate(1551 765)" fill="#777d89" opacity="0.1"/>
    <rect id="Rectangle_182-4" data-name="Rectangle 182" width="2" height="30" transform="translate(1763 365)" fill="#777d89" opacity="0.1"/>
    <rect id="Rectangle_183-4" data-name="Rectangle 183" width="2" height="30" transform="translate(1763 445)" fill="#777d89" opacity="0.1"/>
    <rect id="Rectangle_184-4" data-name="Rectangle 184" width="2" height="30" transform="translate(1763 525)" fill="#777d89" opacity="0.1"/>
    <rect id="Rectangle_185-4" data-name="Rectangle 185" width="2" height="30" transform="translate(1763 605)" fill="#777d89" opacity="0.1"/>
    <rect id="Rectangle_186-4" data-name="Rectangle 186" width="2" height="30" transform="translate(1763 685)" fill="#777d89" opacity="0.1"/>
    <rect id="Rectangle_187-4" data-name="Rectangle 187" width="2" height="30" transform="translate(1763 765)" fill="#777d89" opacity="0.1"/>
    <rect id="Rectangle_182-5" data-name="Rectangle 182" width="2" height="30" transform="translate(1021 365)" fill="#777d89" opacity="0.1"/>
    <rect id="Rectangle_183-5" data-name="Rectangle 183" width="2" height="30" transform="translate(1021 445)" fill="#777d89" opacity="0.1"/>
    <rect id="Rectangle_184-5" data-name="Rectangle 184" width="2" height="30" transform="translate(1021 525)" fill="#777d89" opacity="0.1"/>
    <rect id="Rectangle_185-5" data-name="Rectangle 185" width="2" height="30" transform="translate(1021 605)" fill="#777d89" opacity="0.1"/>
    <rect id="Rectangle_186-5" data-name="Rectangle 186" width="2" height="30" transform="translate(1021 685)" fill="#777d89" opacity="0.1"/>
    <rect id="Rectangle_187-5" data-name="Rectangle 187" width="2" height="30" transform="translate(1021 765)" fill="#777d89" opacity="0.1"/>
    <rect id="Rectangle_182-6" data-name="Rectangle 182" width="2" height="30" transform="translate(1233 365)" fill="#777d89" opacity="0.1"/>
    <rect id="Rectangle_183-6" data-name="Rectangle 183" width="2" height="30" transform="translate(1233 445)" fill="#777d89" opacity="0.1"/>
    <rect id="Rectangle_184-6" data-name="Rectangle 184" width="2" height="30" transform="translate(1233 525)" fill="#777d89" opacity="0.1"/>
    <rect id="Rectangle_185-6" data-name="Rectangle 185" width="2" height="30" transform="translate(1233 605)" fill="#777d89" opacity="0.1"/>
    <rect id="Rectangle_186-6" data-name="Rectangle 186" width="2" height="30" transform="translate(1233 685)" fill="#777d89" opacity="0.1"/>
    <rect id="Rectangle_187-6" data-name="Rectangle 187" width="2" height="30" transform="translate(1233 765)" fill="#777d89" opacity="0.1"/>
    <rect id="Rectangle_182-7" data-name="Rectangle 182" width="2" height="30" transform="translate(1445 365)" fill="#777d89" opacity="0.1"/>
    <rect id="Rectangle_183-7" data-name="Rectangle 183" width="2" height="30" transform="translate(1445 445)" fill="#777d89" opacity="0.1"/>
    <rect id="Rectangle_184-7" data-name="Rectangle 184" width="2" height="30" transform="translate(1445 525)" fill="#777d89" opacity="0.1"/>
    <rect id="Rectangle_185-7" data-name="Rectangle 185" width="2" height="30" transform="translate(1445 605)" fill="#777d89" opacity="0.1"/>
    <rect id="Rectangle_186-7" data-name="Rectangle 186" width="2" height="30" transform="translate(1445 685)" fill="#777d89" opacity="0.1"/>
    <rect id="Rectangle_187-7" data-name="Rectangle 187" width="2" height="30" transform="translate(1445 765)" fill="#777d89" opacity="0.1"/>
    <rect id="Rectangle_182-8" data-name="Rectangle 182" width="2" height="30" transform="translate(1657 365)" fill="#777d89" opacity="0.1"/>
    <rect id="Rectangle_183-8" data-name="Rectangle 183" width="2" height="30" transform="translate(1657 445)" fill="#777d89" opacity="0.1"/>
    <rect id="Rectangle_184-8" data-name="Rectangle 184" width="2" height="30" transform="translate(1657 525)" fill="#777d89" opacity="0.1"/>
    <rect id="Rectangle_185-8" data-name="Rectangle 185" width="2" height="30" transform="translate(1657 605)" fill="#777d89" opacity="0.1"/>
    <rect id="Rectangle_186-8" data-name="Rectangle 186" width="2" height="30" transform="translate(1657 685)" fill="#777d89" opacity="0.1"/>
    <rect id="Rectangle_187-8" data-name="Rectangle 187" width="2" height="30" transform="translate(1657 765)" fill="#777d89" opacity="0.1"/>
    <rect id="Rectangle_182-9" data-name="Rectangle 182" width="2" height="30" transform="translate(1869 365)" fill="#777d89" opacity="0.1"/>
    <rect id="Rectangle_183-9" data-name="Rectangle 183" width="2" height="30" transform="translate(1869 445)" fill="#777d89" opacity="0.1"/>
    <rect id="Rectangle_184-9" data-name="Rectangle 184" width="2" height="30" transform="translate(1869 525)" fill="#777d89" opacity="0.1"/>
    <rect id="Rectangle_185-9" data-name="Rectangle 185" width="2" height="30" transform="translate(1869 605)" fill="#777d89" opacity="0.1"/>
    <rect id="Rectangle_186-9" data-name="Rectangle 186" width="2" height="30" transform="translate(1869 685)" fill="#777d89" opacity="0.1"/>
    <rect id="Rectangle_187-9" data-name="Rectangle 187" width="2" height="30" transform="translate(1869 765)" fill="#777d89" opacity="0.1"/>
    <rect id="Rectangle_182-10" data-name="Rectangle 182" width="2" height="30" transform="translate(1180 365)" fill="#777d89" opacity="0.1"/>
    <rect id="Rectangle_183-10" data-name="Rectangle 183" width="2" height="30" transform="translate(1180 445)" fill="#fdb813"/>
    <rect id="Rectangle_184-10" data-name="Rectangle 184" width="2" height="30" transform="translate(1180 525)" fill="#777d89" opacity="0.1"/>
    <rect id="Rectangle_185-10" data-name="Rectangle 185" width="2" height="30" transform="translate(1180 605)" fill="#777d89" opacity="0.1"/>
    <rect id="Rectangle_186-10" data-name="Rectangle 186" width="2" height="30" transform="translate(1180 685)" fill="#777d89" opacity="0.1"/>
    <rect id="Rectangle_187-10" data-name="Rectangle 187" width="2" height="30" transform="translate(1180 765)" fill="#777d89" opacity="0.1"/>
    <rect id="Rectangle_182-11" data-name="Rectangle 182" width="2" height="30" transform="translate(1392 365)" fill="#777d89" opacity="0.1"/>
    <rect id="Rectangle_183-11" data-name="Rectangle 183" width="2" height="30" transform="translate(1392 445)" fill="#777d89" opacity="0.1"/>
    <rect id="Rectangle_184-11" data-name="Rectangle 184" width="2" height="30" transform="translate(1392 525)" fill="#777d89" opacity="0.1"/>
    <rect id="Rectangle_185-11" data-name="Rectangle 185" width="2" height="30" transform="translate(1392 605)" fill="#777d89" opacity="0.1"/>
    <rect id="Rectangle_186-11" data-name="Rectangle 186" width="2" height="30" transform="translate(1392 685)" fill="#777d89" opacity="0.1"/>
    <rect id="Rectangle_187-11" data-name="Rectangle 187" width="2" height="30" transform="translate(1392 765)" fill="#777d89" opacity="0.1"/>
    <rect id="Rectangle_182-12" data-name="Rectangle 182" width="2" height="30" transform="translate(1604 365)" fill="#777d89" opacity="0.1"/>
    <rect id="Rectangle_183-12" data-name="Rectangle 183" width="2" height="30" transform="translate(1604 445)" fill="#777d89" opacity="0.1"/>
    <rect id="Rectangle_184-12" data-name="Rectangle 184" width="2" height="30" transform="translate(1604 525)" fill="#777d89" opacity="0.1"/>
    <rect id="Rectangle_185-12" data-name="Rectangle 185" width="2" height="30" transform="translate(1604 605)" fill="#777d89" opacity="0.1"/>
    <rect id="Rectangle_186-12" data-name="Rectangle 186" width="2" height="30" transform="translate(1604 685)" fill="#777d89" opacity="0.1"/>
    <rect id="Rectangle_187-12" data-name="Rectangle 187" width="2" height="30" transform="translate(1604 765)" fill="#777d89" opacity="0.1"/>
    <rect id="Rectangle_182-13" data-name="Rectangle 182" width="2" height="30" transform="translate(1816 365)" fill="#777d89" opacity="0.1"/>
    <rect id="Rectangle_183-13" data-name="Rectangle 183" width="2" height="30" transform="translate(1816 445)" fill="#777d89" opacity="0.1"/>
    <rect id="Rectangle_184-13" data-name="Rectangle 184" width="2" height="30" transform="translate(1816 525)" fill="#777d89" opacity="0.1"/>
    <rect id="Rectangle_185-13" data-name="Rectangle 185" width="2" height="30" transform="translate(1816 605)" fill="#777d89" opacity="0.1"/>
    <rect id="Rectangle_186-13" data-name="Rectangle 186" width="2" height="30" transform="translate(1816 685)" fill="#777d89" opacity="0.1"/>
    <rect id="Rectangle_187-13" data-name="Rectangle 187" width="2" height="30" transform="translate(1816 765)" fill="#777d89" opacity="0.1"/>
    <rect id="Rectangle_182-14" data-name="Rectangle 182" width="2" height="30" transform="translate(1074 365)" fill="#777d89" opacity="0.1"/>
    <rect id="Rectangle_183-14" data-name="Rectangle 183" width="2" height="30" transform="translate(1074 445)" fill="#777d89" opacity="0.1"/>
    <rect id="Rectangle_184-14" data-name="Rectangle 184" width="2" height="30" transform="translate(1074 525)" fill="#777d89" opacity="0.1"/>
    <rect id="Rectangle_185-14" data-name="Rectangle 185" width="2" height="30" transform="translate(1074 605)" fill="#777d89" opacity="0.1"/>
    <rect id="Rectangle_186-14" data-name="Rectangle 186" width="2" height="30" transform="translate(1074 685)" fill="#777d89" opacity="0.1"/>
    <rect id="Rectangle_187-14" data-name="Rectangle 187" width="2" height="30" transform="translate(1074 765)" fill="#777d89" opacity="0.1"/>
    <rect id="Rectangle_182-15" data-name="Rectangle 182" width="2" height="30" transform="translate(1286 365)" fill="#777d89" opacity="0.1"/>
    <rect id="Rectangle_183-15" data-name="Rectangle 183" width="2" height="30" transform="translate(1286 445)" fill="#777d89" opacity="0.1"/>
    <rect id="Rectangle_184-15" data-name="Rectangle 184" width="2" height="30" transform="translate(1286 525)" fill="#777d89" opacity="0.1"/>
    <rect id="Rectangle_185-15" data-name="Rectangle 185" width="2" height="30" transform="translate(1286 605)" fill="#777d89" opacity="0.1"/>
    <rect id="Rectangle_186-15" data-name="Rectangle 186" width="2" height="30" transform="translate(1286 685)" fill="#777d89" opacity="0.1"/>
    <rect id="Rectangle_187-15" data-name="Rectangle 187" width="2" height="30" transform="translate(1286 765)" fill="#777d89" opacity="0.1"/>
    <rect id="Rectangle_182-16" data-name="Rectangle 182" width="2" height="30" transform="translate(1498 365)" fill="#777d89" opacity="0.1"/>
    <rect id="Rectangle_183-16" data-name="Rectangle 183" width="2" height="30" transform="translate(1498 445)" fill="#777d89" opacity="0.1"/>
    <rect id="Rectangle_184-16" data-name="Rectangle 184" width="2" height="30" transform="translate(1498 525)" fill="#777d89" opacity="0.1"/>
    <rect id="Rectangle_185-16" data-name="Rectangle 185" width="2" height="30" transform="translate(1498 605)" fill="#777d89" opacity="0.1"/>
    <rect id="Rectangle_186-16" data-name="Rectangle 186" width="2" height="30" transform="translate(1498 685)" fill="#777d89" opacity="0.1"/>
    <rect id="Rectangle_187-16" data-name="Rectangle 187" width="2" height="30" transform="translate(1498 765)" fill="#777d89" opacity="0.1"/>
    <rect id="Rectangle_182-17" data-name="Rectangle 182" width="2" height="30" transform="translate(1710 365)" fill="#777d89" opacity="0.1"/>
    <rect id="Rectangle_183-17" data-name="Rectangle 183" width="2" height="30" transform="translate(1710 445)" fill="#777d89" opacity="0.1"/>
    <rect id="Rectangle_184-17" data-name="Rectangle 184" width="2" height="30" transform="translate(1710 525)" fill="#777d89" opacity="0.1"/>
    <rect id="Rectangle_185-17" data-name="Rectangle 185" width="2" height="30" transform="translate(1710 605)" fill="#777d89" opacity="0.1"/>
    <rect id="Rectangle_186-17" data-name="Rectangle 186" width="2" height="30" transform="translate(1710 685)" fill="#777d89" opacity="0.1"/>
    <rect id="Rectangle_187-17" data-name="Rectangle 187" width="2" height="30" transform="translate(1710 765)" fill="#777d89" opacity="0.1"/>
  </g>
</svg>
