<svg xmlns="http://www.w3.org/2000/svg" width="20" height="24.8" viewBox="0 0 20 24.8">
  <g id="pdf-icon" transform="translate(-14 -2)">
    <g id="Group_3191" data-name="Group 3191" transform="translate(14 2)">
      <g id="Group_3188" data-name="Group 3188">
        <g id="Group_3187" data-name="Group 3187">
          <path id="Path_151" data-name="Path 151" d="M32,26.8H16a2,2,0,0,1-2-2V4a2,2,0,0,1,2-2h8.137a1.986,1.986,0,0,1,1.414.586l7.863,7.863A1.986,1.986,0,0,1,34,11.863V24.8A2,2,0,0,1,32,26.8ZM16,2.8A1.2,1.2,0,0,0,14.8,4V24.8A1.2,1.2,0,0,0,16,26H32a1.2,1.2,0,0,0,1.2-1.2V11.863a1.209,1.209,0,0,0-.351-.848L24.986,3.151a1.192,1.192,0,0,0-.848-.351Z" transform="translate(-14 -2)" fill="#fd4233"/>
        </g>
      </g>
      <g id="Group_3190" data-name="Group 3190" transform="translate(3.739 7.8)">
        <g id="Group_3189" data-name="Group 3189">
          <path id="Path_152" data-name="Path 152" d="M45.2,48.864a.631.631,0,0,0-.184-.316,2.556,2.556,0,0,0-1.65-.39,13.632,13.632,0,0,0-1.984.146,4.943,4.943,0,0,1-.92-.636A6.719,6.719,0,0,1,38.8,45.09c.024-.094.044-.176.064-.26a16.772,16.772,0,0,0,.292-3.02.877.877,0,0,0-.052-.216l-.034-.088a.715.715,0,0,0-.652-.5l-.2-.006h0a.737.737,0,0,0-.752.472,8.747,8.747,0,0,0,.458,3.938l-.116.28c-.322.788-.726,1.58-1.082,2.278l-.046.09c-.376.734-.716,1.358-1.026,1.886l-.318.168c-.024.012-.57.3-.7.378a3.9,3.9,0,0,0-1.926,1.97.483.483,0,0,0,.19.54l.308.156a.946.946,0,0,0,.42.1c.774,0,1.672-.964,2.91-3.124a28.949,28.949,0,0,1,4.482-1.064A7.733,7.733,0,0,0,44.282,50.1a1.511,1.511,0,0,0,.384-.042.667.667,0,0,0,.382-.26,1.384,1.384,0,0,0,.152-.934Zm-11.744,3.8a5.373,5.373,0,0,1,1.526-1.826c.052-.042.18-.162.3-.274a5.517,5.517,0,0,1-1.826,2.1ZM38.348,41.4c.248,0,.39.626.4,1.214a2.5,2.5,0,0,1-.3,1.306,6.339,6.339,0,0,1-.21-1.63S38.234,41.4,38.348,41.4Zm-1.46,8.028q.261-.465.538-.984a18.426,18.426,0,0,0,.944-2.06,6.814,6.814,0,0,0,1.558,1.934c.078.064.16.13.244.2a19.786,19.786,0,0,0-3.284.91Zm7.886-.07a1.152,1.152,0,0,1-.434.074,5.1,5.1,0,0,1-1.8-.544c.3-.022.58-.034.828-.034a3.179,3.179,0,0,1,1.034.112c.444.114.45.344.372.392Z" transform="translate(-32.697 -41)" fill="#ff402f"/>
        </g>
      </g>
    </g>
  </g>
</svg>
