<svg id="chemistry-filter" xmlns="http://www.w3.org/2000/svg" width="16" height="15.502" viewBox="0 0 16 15.502">
  <g id="Group_91" data-name="Group 91" transform="translate(0 0)">
    <path id="Path_164" data-name="Path 164" d="M15.933,7.4a.61.61,0,0,0-.527-.308H.6a.6.6,0,0,0-.517.3.583.583,0,0,0,0,.6l5.038,8.705V22a.6.6,0,0,0,.6.6H9.692a.6.6,0,0,0,.6-.6V16.722L15.9,8.007A.6.6,0,0,0,15.933,7.4ZM9.2,16.226a.635.635,0,0,0-.1.328V21.4H6.313V16.534a.607.607,0,0,0-.08-.3l-4.6-7.95h12.68Z" transform="translate(-0.001 -7.093)" fill="#b4b4b4"/>
  </g>
</svg>
