<svg xmlns="http://www.w3.org/2000/svg" width="18" height="13.332" viewBox="0 0 18 13.332">
  <g id="left-arrow-sign" transform="translate(18 13.332) rotate(180)">
    <g id="Group_74" data-name="Group 74" transform="translate(0)">
      <path id="Path_144" data-name="Path 144" d="M.215,61.228l-.024.024-.024.024c-.012.012-.012.024-.024.036l-.024.024c-.012.012-.012.024-.024.036s-.012.012-.012.024-.012.024-.024.048-.012.012-.012.024-.012.036-.024.048v.012a.108.108,0,0,0-.012.06V61.6c0,.024-.012.036-.012.06v.168a.108.108,0,0,0,.012.06V61.9c0,.024.012.036.012.06v.012c.012.012.012.036.024.048s.012.012.012.024.012.036.024.048S.1,62.1.1,62.117s.012.024.024.036.012.012.024.024.012.024.024.036l.024.024.024.024.012.012L6.9,68.229a.723.723,0,1,0,.961-1.081L2.593,62.477H17.279a.72.72,0,1,0,0-1.441H2.593l5.259-4.7a.723.723,0,0,0-.961-1.081L.227,61.216A.012.012,0,0,1,.215,61.228Z" transform="translate(0.001 -55.077)" fill="#b4b4b4"/>
    </g>
  </g>
</svg>
