<svg xmlns="http://www.w3.org/2000/svg" width="50.001" height="41.151" viewBox="0 0 50.001 41.151">
  <path id="Path_222" data-name="Path 222" d="M21.389-66.1l2.3,3.022A41.185,41.185,0,0,0,13.223-52.933Q9.878-47.9,9.878-44.228q0,2.446,1.727,2.446l.719-.072a12.3,12.3,0,0,1,2.878-.432,7.3,7.3,0,0,1,5.432,2.338A8,8,0,0,1,22.9-34.156a9.432,9.432,0,0,1-2.41,6.511,7.291,7.291,0,0,1-5.576,2.7,10.667,10.667,0,0,1-8.129-3.921,14.647,14.647,0,0,1-3.525-10.18Q3.259-54.084,21.389-66.1Zm29.5,0,2.374,3.031A41.234,41.234,0,0,0,42.792-52.894q-3.345,5.051-3.345,8.731,0,2.453,1.655,2.453l.719-.072a13.03,13.03,0,0,1,2.878-.432,7.392,7.392,0,0,1,5.5,2.329,7.947,7.947,0,0,1,2.266,5.768,9.29,9.29,0,0,1-2.446,6.483,7.343,7.343,0,0,1-5.54,2.687,10.629,10.629,0,0,1-8.165-3.921,14.74,14.74,0,0,1-3.489-10.18Q32.828-54.084,50.885-66.1Z" transform="translate(-3.259 66.098)" fill="#fff" opacity="0.1"/>
</svg>
