<svg width="40" height="40" viewBox="0 0 40 40" fill="none" xmlns="http://www.w3.org/2000/svg">
<rect x="0.5" y="0.5" width="39" height="39" rx="19.5" stroke="#23282B"/>
<path d="M20 29C17.2427 29 15 26.477 15 23.375V15.5C15 15.0853 15.2987 14.75 15.6666 14.75C16.0347 14.75 16.3334 15.0853 16.3334 15.5V23.375C16.3334 25.649 17.978 27.5 20 27.5C22.022 27.5 23.6666 25.649 23.6666 23.375V15.125C23.6666 13.6775 22.62 12.5 21.3334 12.5C20.0466 12.5 19 13.6775 19 15.125V22.625C19 23.2452 19.4486 23.75 20 23.75C20.5514 23.75 21 23.2452 21 22.625V15.5C21 15.0853 21.2987 14.75 21.6666 14.75C22.0347 14.75 22.3334 15.0853 22.3334 15.5V22.625C22.3334 24.0725 21.2866 25.25 20 25.25C18.7134 25.25 17.6666 24.0725 17.6666 22.625V15.125C17.6666 12.8511 19.3113 11 21.3334 11C23.3553 11 25 12.8511 25 15.125V23.375C25 26.477 22.7573 29 20 29Z" fill="#23282B"/>
</svg>
