<svg width="96" height="17" viewBox="0 0 96 17" fill="none" xmlns="http://www.w3.org/2000/svg">
<path d="M80.1106 -4.68097e-07L80.1106 2.68544L90.0391 2.68544L90.0391 0L80.1106 -4.68097e-07Z" fill="#23282B"/>
<path d="M91.9798 6.09576L90.1076 4.19695L83.0868 11.3175L84.959 13.2163L91.9798 6.09576Z" fill="#23282B"/>
<path d="M93.3516 16.1129H95.9992V6.04248H93.3516V16.1129Z" fill="#23282B"/>
<path d="M4.98889 12.0227C3.28476 12.0227 2.02519 11.6567 1.21018 10.9247C0.403392 10.1846 0 9.04962 0 7.51992C0 6.01489 0.41574 4.90462 1.24722 4.18911C2.0787 3.46538 3.36709 3.10352 5.11237 3.10352C8.01021 3.10352 9.58261 4.12743 9.82959 6.17526H8.66881C8.56178 5.4762 8.21602 4.96219 7.63151 4.63322C7.05524 4.29603 6.21553 4.12743 5.11237 4.12743C3.72932 4.12743 2.72495 4.39472 2.09928 4.92929C1.48185 5.45564 1.17313 6.3233 1.17313 7.53225C1.17313 8.75766 1.47773 9.64177 2.08693 10.1846C2.69614 10.7274 3.67992 10.9988 5.03828 10.9988C7.39277 10.9988 8.64411 10.238 8.79229 8.71654H9.96542C9.86663 9.80214 9.38915 10.6246 8.53297 11.1838C7.68502 11.7431 6.50366 12.0227 4.98889 12.0227Z" fill="#23282B"/>
<path d="M15.0662 12.0227C13.749 12.0227 12.7776 11.7472 12.1519 11.1961C11.5345 10.6369 11.2258 9.76924 11.2258 8.59318C11.2258 7.43356 11.5386 6.57825 12.1643 6.02722C12.7899 5.4762 13.7573 5.20069 15.0662 5.20069C16.3587 5.20069 17.3178 5.48031 17.9435 6.03956C18.5691 6.59058 18.882 7.44179 18.882 8.59318C18.882 9.76102 18.5691 10.6246 17.9435 11.1838C17.326 11.7431 16.3669 12.0227 15.0662 12.0227ZM15.0662 11.0358C16.0212 11.0358 16.7004 10.8466 17.1038 10.4683C17.5071 10.09 17.7088 9.46494 17.7088 8.59318C17.7088 7.72964 17.5071 7.11282 17.1038 6.74273C16.7004 6.37264 16.0212 6.1876 15.0662 6.1876C14.1195 6.1876 13.4362 6.37675 13.0163 6.75507C12.5965 7.13338 12.3865 7.74608 12.3865 8.59318C12.3865 9.45672 12.5965 10.0818 13.0163 10.4683C13.4362 10.8466 14.1195 11.0358 15.0662 11.0358Z" fill="#23282B"/>
<path d="M25.571 8.3958V8.51916C26.5754 8.73299 27.0776 9.26345 27.0776 10.1105C27.0776 11.3853 25.9127 12.0227 23.5829 12.0227C21.2778 12.0227 20.0676 11.2989 19.9524 9.85148H21.0884C21.2037 10.641 22.0311 11.0358 23.5705 11.0358C25.11 11.0358 25.8797 10.6862 25.8797 9.98718C25.8797 9.63354 25.6986 9.37859 25.3364 9.22233C24.9824 9.05785 24.4185 8.9756 23.6446 8.9756H22.0146V7.9887H23.6446C24.3609 7.9887 24.8836 7.91468 25.2129 7.76664C25.5422 7.61861 25.7069 7.38422 25.7069 7.06347C25.7069 6.47956 25.0112 6.1876 23.6199 6.1876C22.1463 6.1876 21.3725 6.56591 21.2984 7.32254H20.1376C20.2034 6.60703 20.5204 6.07657 21.0884 5.73115C21.6647 5.37751 22.5209 5.20069 23.657 5.20069C25.8221 5.20069 26.9047 5.79283 26.9047 6.97712C26.9047 7.6844 26.4601 8.15729 25.571 8.3958Z" fill="#23282B"/>
<path d="M34.9468 5.38574V10.8631H35.7124V13.9101H34.5269V11.8376H28.9577V13.9101H27.7722V10.8631H28.5131C29.1305 10.3614 29.4393 9.30869 29.4393 7.70496V5.38574H34.9468ZM29.8591 10.8631H33.7613V6.3603H30.6124V7.89001C30.6124 9.14831 30.3613 10.1393 29.8591 10.8631Z" fill="#23282B"/>
<path d="M39.8818 5.20069C40.9356 5.20069 41.7177 5.4063 42.2281 5.81751C42.7385 6.22872 42.9937 6.85787 42.9937 7.70496V11.8376H41.8329V10.715C41.3802 11.5868 40.5487 12.0227 39.3385 12.0227C37.4862 12.0227 36.56 11.3647 36.56 10.0489C36.56 8.67542 37.5809 7.9887 39.6225 7.9887C40.454 7.9887 41.1908 8.08739 41.8329 8.28477V7.70496C41.8329 7.17861 41.6765 6.79619 41.3637 6.55769C41.0509 6.31096 40.561 6.1876 39.8942 6.1876C38.717 6.1876 38.0913 6.496 38.0172 7.11282H36.9182C37.0087 5.83807 37.9966 5.20069 39.8818 5.20069ZM39.5484 11.0728C40.1988 11.0728 40.7257 10.9453 41.1291 10.6904C41.5407 10.4272 41.7753 10.0776 41.8329 9.64177V9.22233C41.2073 9.02495 40.4911 8.92626 39.6843 8.92626C38.3835 8.92626 37.7332 9.30046 37.7332 10.0489C37.7332 10.7315 38.3383 11.0728 39.5484 11.0728Z" fill="#23282B"/>
<path d="M50.0037 7.97636V5.38574H51.1645V11.8376H50.0037V8.95093H46.0645V11.8376H44.9037V5.38574H46.0645V7.97636H50.0037Z" fill="#23282B"/>
<path d="M56.6105 12.0227C55.2933 12.0227 54.3219 11.7472 53.6962 11.1961C53.0788 10.6369 52.7701 9.76924 52.7701 8.59318C52.7701 7.43356 53.0829 6.57825 53.7086 6.02722C54.3342 5.4762 55.3016 5.20069 56.6105 5.20069C57.903 5.20069 58.8621 5.48031 59.4878 6.03956C60.1134 6.59058 60.4263 7.44179 60.4263 8.59318C60.4263 9.76102 60.1134 10.6246 59.4878 11.1838C58.8703 11.7431 57.9112 12.0227 56.6105 12.0227ZM56.6105 11.0358C57.5655 11.0358 58.2447 10.8466 58.6481 10.4683C59.0514 10.09 59.2531 9.46494 59.2531 8.59318C59.2531 7.72964 59.0514 7.11282 58.6481 6.74273C58.2447 6.37264 57.5655 6.1876 56.6105 6.1876C55.6638 6.1876 54.9805 6.37675 54.5606 6.75507C54.1408 7.13338 53.9308 7.74608 53.9308 8.59318C53.9308 9.45672 54.1408 10.0818 54.5606 10.4683C54.9805 10.8466 55.6638 11.0358 56.6105 11.0358Z" fill="#23282B"/>
<path d="M70.8181 8.3958V8.50682C71.7154 8.71243 72.1641 9.21822 72.1641 10.0242C72.1641 11.2332 71.2915 11.8376 69.5462 11.8376H65.7181V5.38574H69.4844C71.1309 5.38574 71.9542 5.92031 71.9542 6.98946C71.9542 7.35132 71.8677 7.64328 71.6949 7.86533C71.522 8.07916 71.2297 8.25599 70.8181 8.3958ZM66.8789 6.3603V7.9887H69.5215C69.9496 7.9887 70.2624 7.92702 70.46 7.80365C70.6576 7.67207 70.7564 7.46235 70.7564 7.1745C70.7564 6.6317 70.3036 6.3603 69.398 6.3603H66.8789ZM66.8789 8.96327V10.8631H69.5091C70.4888 10.8631 70.9786 10.5547 70.9786 9.93784C70.9786 9.60065 70.8593 9.35392 70.6205 9.19766C70.3818 9.0414 70.0072 8.96327 69.4968 8.96327H66.8789Z" fill="#23282B"/>
</svg>
