<svg width="160" height="40" viewBox="0 0 160 40" fill="none" xmlns="http://www.w3.org/2000/svg">
<path d="M52.3057 12.2187C50.7373 9.71337 48.1755 8.10815 44.7929 8.10815C38.9219 8.10815 34.5938 12.9465 34.5938 18.919C34.5938 24.8914 38.9219 29.7298 44.7929 29.7298C48.1755 29.7298 50.7405 28.1213 52.3057 25.6193V29.2131H56.2154V8.62156H52.3057V12.2187ZM45.4285 25.9117C41.6306 25.9117 38.5578 22.7793 38.5578 18.9222C38.5578 15.0587 41.637 11.9262 45.4285 11.9262C49.2232 11.9262 52.2993 15.0587 52.2993 18.9222C52.3057 22.7793 49.2264 25.9117 45.4285 25.9117Z" fill="#23282B"/>
<path d="M149.32 25.9085C145.411 25.9085 142.248 22.776 142.248 18.919C142.248 15.0554 145.417 11.923 149.32 11.923C152.404 11.923 155.022 13.8791 155.988 16.6021H160C158.924 11.7475 154.558 8.10815 149.317 8.10815C143.274 8.10815 138.378 12.9465 138.378 18.919C138.378 24.8914 143.274 29.7298 149.317 29.7298C154.551 29.7298 158.924 26.0937 160 21.2358H155.988C155.022 23.9523 152.404 25.9085 149.32 25.9085Z" fill="#23282B"/>
<path d="M104.2 12.1919C102.631 9.70291 100.069 8.10815 96.686 8.10815C90.8142 8.10815 86.4854 12.915 86.4854 18.8485C86.4854 24.7821 90.8142 29.5889 96.686 29.5889C100.069 29.5889 102.634 27.991 104.2 25.5052V29.4243C104.2 33.3789 101.887 36.3005 97.4783 36.3005C94.7181 36.3005 92.5584 35.1415 91.6064 32.7526H87.3288C88.5395 37.2657 92.715 40 97.4783 40C103.845 40 108.107 35.3514 108.107 29.4243V8.61822H104.197V12.1919H104.2ZM97.3281 25.7957C93.5296 25.7957 90.4563 22.6837 90.4563 18.8518C90.4563 15.0134 93.536 11.9013 97.3281 11.9013C101.127 11.9013 104.2 15.0134 104.2 18.8518C104.2 22.6837 101.12 25.7957 97.3281 25.7957Z" fill="#23282B"/>
<path d="M71.3573 5.94595C74.9161 5.94595 77.8949 3.40505 78.6483 0H74.8972C74.3645 1.738 73.132 2.78273 71.351 2.78273C69.5732 2.78273 68.3375 1.738 67.8048 0H64.0537C64.826 3.40505 67.7985 5.94595 71.3573 5.94595Z" fill="#23282B"/>
<path d="M64.5036 27.2671V8.64868H60.54V29.1892H67.4666L78.2046 10.5773V29.1892H82.1617V8.64868H75.2351L64.5036 27.2671Z" fill="#23282B"/>
<path d="M116.395 27.2671V8.64868H112.432V29.1892H119.358L130.096 10.5773V29.1892H134.053V8.64868H127.127L116.395 27.2671Z" fill="#23282B"/>
<path d="M-0.000394821 5.9458L-0.00039501 10.2701L16.2158 10.2701L16.2158 5.9458L-0.000394821 5.9458Z" fill="#23282B"/>
<path d="M19.3894 15.7607L16.3317 12.7029L4.86509 24.1695L7.92285 27.2273L19.3894 15.7607Z" fill="#23282B"/>
<path d="M21.6211 31.8915H25.9454V15.6753H21.6211V31.8915Z" fill="#23282B"/>
</svg>
