<svg xmlns="http://www.w3.org/2000/svg">
  <symbol id="menu-burger" viewBox="0 0 40 10">
    <path d="M40 7H0v3h40V7z"/>
    <path d="M40 0H0v3h40V0z"/>
  </symbol>

  <symbol id="menu-cross" viewBox="0 0 24 24">
    <path d="M19.94 5L19 4.06l-7 7L4.94 4 4 4.94 11.06 12 4 19.06l.94.94L12 12.94 19.06 20l.94-.94L12.94 12l7-7z"/>
  </symbol>

  <symbol id="popup-cross" viewBox="0 0 24 24">
    <path fill="var(--white)" d="M19.94 5L19 4.06l-7 7L4.94 4 4 4.94 11.06 12 4 19.06l.94.94L12 12.94 19.06 20l.94-.94L12.94 12l7-7z"/>
  </symbol>

  <symbol id="arrow-down" viewBox="0 0 24 24" fill="none">
    <path stroke-width="1.5" d="M12 4v16m0 0l6-7.11M12 20l-6-7.11"/>
  </symbol>

  <symbol id="arrow-right" viewBox="0 0 24 24" fill="none">
    <path stroke-width="1.5" d="M4 12h16m0 0l-7.11-6M20 12l-7.11 6"/>
  </symbol>

  <symbol id="arrow-left" viewBox="0 0 24 24" fill="none">
    <path stroke-width="1.5" d="M20 12H4m0 0l7.11-6M4 12l7.11 6"/>
  </symbol>

  <symbol id="arrow-top" viewBox="0 0 28 28" fill="none">
    <path stroke-width="1.5" d="M14 24V4m0 0l-8 8.89M14 4l8 8.89"/>
  </symbol>

  <symbol id="add-file" viewBox="0 0 24 24">
    <path class="path" d="M12 21c-2.76 0-5-2.52-5-5.63V7.5c0-.41.3-.75.67-.75.36 0 .66.34.66.75v7.88c0 2.27 1.65 4.12 3.67 4.12s3.67-1.85 3.67-4.13V7.13c0-1.44-1.05-2.62-2.34-2.62C12.05 4.5 11 5.68 11 7.12v7.5c0 .63.45 1.13 1 1.13s1-.5 1-1.13V7.5c0-.41.3-.75.67-.75.36 0 .66.34.66.75v7.13c0 1.44-1.04 2.62-2.33 2.62s-2.33-1.18-2.33-2.63v-7.5C9.67 4.85 11.3 3 13.33 3 15.36 3 17 4.85 17 7.12v8.25c0 3.1-2.24 5.63-5 5.63z"/>
  </symbol>

  <symbol id="play" viewBox="0 0 24 24">
    <path fill-rule="evenodd" clip-rule="evenodd" d="M3.54 12a8.46 8.46 0 1116.92 0 8.46 8.46 0 01-16.92 0zM2 12a10 10 0 1020 0 10 10 0 00-20 0zm12.5 0l-3.98 2.35v-4.7L14.5 12zM8.98 9.64c0-1.19 1.3-1.93 2.33-1.32l3.98 2.35c1 .6 1 2.06 0 2.65l-3.98 2.36a1.54 1.54 0 01-2.33-1.33v-4.7z"/>
  </symbol>

  <symbol id="sort-blocks" viewBox="0 0 24 24" fill="none">
    <path stroke-linecap="round" stroke-linejoin="round" clip-rule="evenodd" stroke-width="1.5" d="M7.75 9.75H5a2 2 0 01-2-2V5c0-1.1.9-2 2-2h2.75a2 2 0 012 2v2.75a2 2 0 01-2 2zM19 9.75h-2.75a2 2 0 01-2-2V5c0-1.1.9-2 2-2H19a2 2 0 012 2v2.75a2 2 0 01-2 2zM7.75 21H5a2 2 0 01-2-2v-2.75c0-1.1.9-2 2-2h2.75a2 2 0 012 2V19a2 2 0 01-2 2zM19 21h-2.75a2 2 0 01-2-2v-2.75c0-1.1.9-2 2-2H19a2 2 0 012 2V19a2 2 0 01-2 2z"/>
  </symbol>

  <symbol id="sort-lines" viewBox="0 0 24 24" fill="none">
    <path stroke-linecap="round" stroke-linejoin="round" clip-rule="evenodd" stroke-width="1.5" d="M21 5v2.75a2 2 0 01-2 2H5a2 2 0 01-2-2V5c0-1.1.9-2 2-2h14a2 2 0 012 2zM21 16.25V19a2 2 0 01-2 2H5a2 2 0 01-2-2v-2.75c0-1.1.9-2 2-2h14a2 2 0 012 2z" />
  </symbol>

  <symbol id="refresh" viewBox="0 0 16 16">
    <path d="M12.95 4.46A7.08 7.08 0 008 2.48H6.97L8.62.88 7.7 0 4.5 3.1l3.16 3.11.93-.87-1.64-1.6H8c3.15 0 5.7 2.46 5.7 5.5s-2.55 5.5-5.7 5.5a5.62 5.62 0 01-5.7-5.5V8.6H1v.63c0 1.8.73 3.5 2.05 4.78A7.08 7.08 0 008 16c1.87 0 3.63-.7 4.95-1.98a6.6 6.6 0 000-9.56z"/>
  </symbol>

  <symbol id="cookies" viewBox="0 0 30 30" fill="none">
    <path stroke-linecap="round" stroke-linejoin="round" stroke-width="2" d="M9.5 17.34a.16.16 0 00-.16.16c0 .09.07.16.16.16a.16.16 0 000-.32M11.5 11.34a.16.16 0 00-.16.16c0 .09.07.16.16.16a.16.16 0 100-.32M16.5 20.34a.16.16 0 00-.16.16c0 .09.07.16.16.16a.16.16 0 100-.32M14.5 15.34a.16.16 0 00-.16.16c0 .09.07.16.16.16a.16.16 0 000-.32"/>
    <path stroke-linecap="round" stroke-linejoin="round" clip-rule="evenodd" stroke-width="2" d="M15 4a11 11 0 0011 11A11 11 0 1115 4z"/>
  </symbol>

  <symbol id="cross" viewBox="0 0 16 16" fill="none">
    <path fill="var(--typo-primary-color)" fill-rule="evenodd" d="M8.8 0H7.2v7.2H0v1.6h7.2V16h1.6V8.8H16V7.2H8.8V0Z" clip-rule="evenodd"/>
  </symbol>

  <symbol id="strategy" viewBox="0 0 180 60" fill="none">
    <path fill="var(--typo-secondary-color)" d="M115.13 0l4.84 4.85-19.3 19.3-4.84-4.85L115.13 0zm13.34 26.86v6.86h-27.3v-6.86h27.3zm-8.5 28.23l-4.84 4.85-19.3-19.3 4.84-4.85 19.3 19.3zM27.3.06l4.85 4.85-19.3 19.3L8 19.36 27.3.06zm13.33 26.85v6.87h-27.3v-6.86h27.3zm-8.48 28.24L27.3 60 8 40.7l4.85-4.85 19.3 19.3z"/>
    <path fill="var(--typo-primary-color)" d="M64.9 0l-4.85 4.85 19.3 19.3 4.87-4.85L64.92 0zM51.56 26.85v6.87h27.3v-6.86h-27.3zm8.5 28.24l4.84 4.85 19.3-19.3-4.84-4.85-19.3 19.3z"/>
    <path fill="var(--typo-secondary-color)" d="M152.7.06l-4.84 4.85 19.3 19.3 4.84-4.85L152.7.06zm-13.33 26.85v6.87h27.3V26.9h-27.3zm8.48 28.24l4.86 4.85L172 40.7l-4.85-4.86-19.3 19.3z"/>
  </symbol>

  <symbol id="branding" viewBox="0 0 180 60" fill="none">
    <path fill="var(--typo-primary-color)" d="M115.13 0l4.84 4.85-19.3 19.3-4.84-4.85L115.13 0zm4.84 55.09l-4.84 4.85-19.3-19.3 4.84-4.85 19.3 19.3z"/>
    <path fill="var(--typo-secondary-color)" d="M27.3.06l4.85 4.85-19.3 19.3L8 19.36 27.3.06zm4.85 55.09L27.3 60 8 40.7l4.85-4.85 19.3 19.3z"/>
    <path fill="var(--typo-primary-color)" d="M64.9 0l-4.85 4.85 19.3 19.3 4.87-4.85L64.92 0zm-4.85 55.09l4.86 4.85 19.3-19.3-4.85-4.86-19.3 19.3z"/>
    <path fill="var(--typo-secondary-color)" d="M152.7.06l-4.84 4.85 19.3 19.3 4.84-4.85L152.7.06zm-4.84 55.09L152.7 60 172 40.7l-4.84-4.86-19.3 19.3z"/>
  </symbol>

  <symbol id="develop" viewBox="0 0 180 60" fill="none">
    <path fill="var(--typo-primary-color)" d="M112.52 60l-4.86-4.85 19.31-19.31 4.86 4.85L112.52 60zm-4.86-55.1l4.86-4.86 19.3 19.3-4.85 4.86-19.3-19.3zM67.63 60l4.86-4.85-19.31-19.31-4.86 4.85L67.63 60zm4.86-55.1L67.63.03l-19.3 19.3 4.85 4.86 19.3-19.3z"/>
    <path fill="var(--typo-secondary-color)" d="M78.02 37.23l4.85 4.85 19.31-19.3-4.85-4.86-19.31 19.31zM27.27 0l4.86 4.85-19.31 19.31-4.86-4.85L27.27 0zm4.86 55.1l-4.86 4.86-19.3-19.3 4.85-4.86 19.3 19.3zM152.73 0l-4.86 4.85 19.31 19.32 4.86-4.86L152.73.01zm-4.86 55.1l4.86 4.86 19.3-19.3-4.85-4.86-19.3 19.3z"/>
  </symbol>

  <symbol id="design" viewBox="0 0 180 60" fill="none">
    <path fill="var(--typo-secondary-color)" d="M21.3 59.92l-4.86-4.84 19.3-19.3 4.85 4.84-19.3 19.3zM7.95 33.06V26.2h27.3v6.86H7.96zm8.5-28.23L21.3 0l19.3 19.3-4.86 4.85-19.3-19.3z"/>
    <path fill="var(--typo-primary-color)" d="M75.33 26.93v6.85h27.3v-6.86h-27.3zm-28-7.7l4.84 4.84 19.3-19.3-4.84-4.84-19.3 19.3zm79.7 4.54l4.75-4.95-19.7-18.9-4.75 4.96 19.7 18.9zm4.44 17l-4.84-4.85-19.3 19.3 4.84 4.86 19.3-19.3zm-79.4-4.85l-4.74 4.95 19.7 18.9 4.75-4.96-19.7-18.89z"/>
    <path fill="var(--typo-secondary-color)" d="M158.7 59.92l4.86-4.84-19.3-19.3-4.86 4.84 19.3 19.3zm13.34-26.84V26.2h-27.3v6.86h27.3zm-8.48-28.24L158.7-.01l-19.3 19.3 4.84 4.85 19.3-19.3z"/>
  </symbol>

  <symbol id="logo" viewBox="0 0 24 24">
    <path d="M.89.89v3.7h13.89V.9H.88Z"/>
    <path d="m17.5 9.3-2.62-2.62-9.83 9.82 2.62 2.62 9.82-9.83Z"/>
    <path d="M19.4 23.11h3.71V9.22h-3.7v13.9Z"/>
  </symbol>

  <symbol id="play-button" viewBox="0 0 40 44" fill="none">
    <path fill="#fff" d="M38.65 19.35 3.85.37A2.8 2.8 0 0 0 2.49 0C1.12 0 0 1.03 0 2.3H0v39.4h.01c0 1.27 1.11 2.3 2.48 2.3.51 0 .93-.16 1.4-.39l34.76-18.96A3.33 3.33 0 0 0 40 22c0-1.07-.52-2-1.35-2.65Z"/>
  </symbol>

  <symbol id="analytics-strategy" viewBox="0 0 186 60" fill="none">
    <path d="M117.803 9.239e-05L122.654 4.85156L103.351 24.1552L98.4991 19.3038L117.803 9.239e-05Z" fill="var(--typo-secondary-color)"/>
    <path d="M131.145 26.8553L131.145 33.7163L103.846 33.717L103.847 26.856L131.145 26.8553Z" fill="var(--typo-secondary-color)"/>
    <path d="M122.654 55.0897L117.803 59.9414L98.5001 40.6388L103.352 35.787L122.654 55.0897Z" fill="var(--typo-secondary-color)"/>
    <path d="M29.9708 0.0591744L34.8223 4.91064L15.5186 24.2143L10.6671 19.3629L29.9708 0.0591744Z" fill="var(--typo-secondary-color)"/>
    <path d="M43.3127 26.9143L43.3125 33.7754L16.0143 33.7761L16.0145 26.9151L43.3127 26.9143Z" fill="var(--typo-secondary-color)"/>
    <path d="M34.8224 55.1488L29.9707 60.0005L10.6681 40.6978L15.5198 35.8461L34.8224 55.1488Z" fill="var(--typo-secondary-color)"/>
    <path d="M67.5839 0.00106936L62.7324 4.85254L82.0361 24.1562L86.8876 19.3047L67.5839 0.00106936Z" fill="var(--typo-primary-color)"/>
    <path d="M54.244 26.8548L54.2441 33.7158L81.5423 33.7166L81.5422 26.8555L54.244 26.8548Z" fill="var(--typo-primary-color)"/>
    <path d="M62.7323 55.0877L67.584 59.9395L86.8866 40.6368L82.0349 35.7851L62.7323 55.0877Z" fill="var(--typo-primary-color)"/>
    <path d="M155.379 0.0606397L150.527 4.91211L169.831 24.2158L174.682 19.3643L155.379 0.0606397Z" fill="var(--typo-secondary-color)"/>
    <path d="M142.039 26.9143L142.039 33.7754L169.337 33.7761L169.337 26.9151L142.039 26.9143Z" fill="var(--typo-secondary-color)"/>
    <path d="M150.527 55.1473L155.379 59.999L174.682 40.6964L169.83 35.8446L150.527 55.1473Z" fill="var(--typo-secondary-color)"/>
  </symbol>

  <symbol id="branding-design" viewBox="0 0 186 60" fill="none">
    <path d="M117.803 9.239e-05L122.654 4.85156L103.351 24.1552L98.4991 19.3038L117.803 9.239e-05Z" fill="var(--typo-primary-color)"/>
    <path d="M122.654 55.0897L117.803 59.9414L98.5001 40.6388L103.352 35.787L122.654 55.0897Z" fill="var(--typo-primary-color)"/>
    <path d="M29.9708 0.0591744L34.8223 4.91064L15.5186 24.2143L10.6671 19.3629L29.9708 0.0591744Z" fill="var(--typo-secondary-color)"/>
    <path d="M34.8224 55.1488L29.9707 60.0005L10.6681 40.6978L15.5198 35.8461L34.8224 55.1488Z" fill="var(--typo-secondary-color)"/>
    <path d="M67.5839 0.00106936L62.7324 4.85254L82.0361 24.1562L86.8876 19.3047L67.5839 0.00106936Z" fill="var(--typo-primary-color)"/>
    <path d="M62.7323 55.0877L67.584 59.9395L86.8866 40.6368L82.0349 35.7851L62.7323 55.0877Z" fill="var(--typo-primary-color)"/>
    <path d="M155.379 0.0606397L150.527 4.91211L169.831 24.2158L174.682 19.3643L155.379 0.0606397Z" fill="var(--typo-secondary-color)"/>
    <path d="M150.527 55.1473L155.379 59.999L174.682 40.6964L169.83 35.8446L150.527 55.1473Z" fill="var(--typo-secondary-color)"/>
  </symbol>

  <symbol id="sites-services" viewBox="0 0 186 60" fill="none">
    <path d="M115.226 60.0002L110.373 55.147L129.684 35.8364L134.537 40.6896L115.226 60.0002Z" fill="var(--typo-primary-color)"/>
    <path d="M110.373 4.89252L115.227 0.0390625L134.536 19.3486L129.683 24.2021L110.373 4.89252Z" fill="var(--typo-primary-color)"/>
    <path d="M70.3441 60.0002L75.1973 55.147L55.8867 35.8364L51.0335 40.6896L70.3441 60.0002Z" fill="var(--typo-primary-color)"/>
    <path d="M75.1972 4.89252L70.3438 0.0390625L51.0342 19.3486L55.8877 24.2021L75.1972 4.89252Z" fill="var(--typo-primary-color)"/>
    <path d="M80.7267 37.2314L85.5801 42.0845L104.89 22.7754L100.037 17.9223L80.7267 37.2314Z" fill="var(--typo-secondary-color)"/>
    <path d="M29.9827 -0.000173485L34.8359 4.85303L15.5254 24.1636L10.6722 19.3104L29.9827 -0.000173485Z" fill="var(--typo-secondary-color)"/>
    <path d="M34.8359 55.1094L29.9824 59.9629L10.6729 40.6534L15.5263 35.7999L34.8359 55.1094Z" fill="var(--typo-secondary-color)"/>
    <path d="M155.435 0.00129177L150.582 4.85449L169.893 24.1651L174.746 19.3119L155.435 0.00129177Z" fill="var(--typo-secondary-color)"/>
    <path d="M150.582 55.108L155.436 59.9614L174.745 40.6519L169.892 35.7984L150.582 55.108Z" fill="var(--typo-secondary-color)"/>
  </symbol>

  <symbol id="smm-advertising" viewBox="0 0 162 60" fill="none">
    <path d="M3.14661e-10 0.000167847L0 7.02686L27.9587 7.02686L27.9587 0.000167848L3.14661e-10 0.000167847Z" fill="var(--typo-secondary-color)"/>
    <path d="M36.3792 43.4067L43.4062 43.4067L43.4063 15.4495L36.3792 15.4495L36.3792 43.4067Z" fill="var(--typo-secondary-color)"/>
    <path d="M53.9277 0.000167847L53.9277 7.02686L81.8865 7.02686L81.8865 0.000167848L53.9277 0.000167847Z" fill="var(--typo-primary-color)"/>
    <path d="M90.3069 43.4067L97.334 43.4067L97.334 15.4495L90.3069 15.4495L90.3069 43.4067Z" fill="var(--typo-primary-color)"/>
    <path d="M107.855 0.000167847L107.855 7.02686L135.814 7.02686L135.814 0.000167848L107.855 0.000167847Z" fill="var(--typo-secondary-color)"/>
    <path d="M144.235 43.4067L151.262 43.4067L151.262 15.4495L144.235 15.4495L144.235 43.4067Z" fill="var(--typo-secondary-color)"/>
    <path d="M53.9375 59.9998L53.9375 52.9731L25.9788 52.9731L25.9788 59.9998L53.9375 59.9998Z" fill="var(--typo-primary-color)"/>
    <path d="M17.5583 16.5933L10.5312 16.5933L10.5313 44.5505L17.5583 44.5505L17.5583 16.5933Z" fill="var(--typo-primary-color)"/>
    <path d="M107.865 59.9998L107.865 52.9731L79.9065 52.9731L79.9065 59.9998L107.865 59.9998Z" fill="var(--typo-secondary-color)"/>
    <path d="M71.486 16.5933L64.459 16.5933L64.459 44.5505L71.486 44.5505L71.486 16.5933Z" fill="var(--typo-secondary-color)"/>
    <path d="M161.793 59.9998L161.793 52.9731L133.834 52.9731L133.834 59.9998L161.793 59.9998Z" fill="var(--typo-secondary-color)"/>
    <path d="M125.414 16.5933L118.387 16.5933L118.387 44.5505L125.414 44.5505L125.414 16.5933Z" fill="var(--typo-secondary-color)"/>
  </symbol>

  <symbol id="file-upload" viewBox="0 0 10 18" fill="none">
    <path d="M5 18C2.24268 18 0 15.477 0 12.375V4.5C0 4.08527 0.298706 3.75005 0.666626 3.75005C1.03467 3.75005 1.33337 4.08527 1.33337 4.5V12.375C1.33337 14.649 2.97803 16.5 5 16.5C7.02197 16.5 8.66663 14.649 8.66663 12.375V4.12495C8.66663 2.67751 7.62 1.50005 6.33337 1.50005C5.04663 1.50005 4 2.67751 4 4.12495V11.625C4 12.2452 4.44861 12.75 5 12.75C5.55139 12.75 6 12.2452 6 11.625V4.5C6 4.08527 6.29871 3.75005 6.66663 3.75005C7.03467 3.75005 7.33337 4.08527 7.33337 4.5V11.625C7.33337 13.0725 6.28662 14.25 5 14.25C3.71338 14.25 2.66663 13.0725 2.66663 11.625V4.12495C2.66663 1.85106 4.31128 0 6.33337 0C8.35535 0 10 1.85106 10 4.12495V12.375C10 15.477 7.75732 18 5 18Z" fill="#23282B"/>
  </symbol>

  <symbol id="lets-create" viewBox="0 0 121 12" fill="none">
    <path d="M1.25081 10.1446H0V0H1.25081V10.1446Z" fill="#23282B"/>
    <path d="M12.241 6.59399V6.98109H5.50796C5.55231 7.80868 5.79626 8.40044 6.23981 8.7564C6.68336 9.10345 7.40192 9.27697 8.39547 9.27697C9.92128 9.27697 10.7685 8.88988 10.937 8.11568H12.1213C12.0326 8.83649 11.6644 9.38821 11.0168 9.77086C10.3781 10.1535 9.50434 10.3448 8.39547 10.3448C7.00272 10.3448 5.97368 10.0423 5.30836 9.43715C4.64303 8.83204 4.31037 7.89766 4.31037 6.63404C4.31037 5.37931 4.63416 4.45384 5.28175 3.85762C5.92933 3.2614 6.94062 2.96329 8.31563 2.96329C9.68176 2.96329 10.6753 3.2525 11.2963 3.83092C11.9261 4.40045 12.241 5.32147 12.241 6.59399ZM8.31563 4.03115C7.4374 4.03115 6.77651 4.17798 6.33296 4.47164C5.89828 4.7653 5.63215 5.25028 5.53457 5.92659H10.9769C10.9414 5.26808 10.7108 4.78754 10.285 4.48498C9.86805 4.18243 9.2116 4.03115 8.31563 4.03115Z" fill="#23282B"/>
    <path d="M19.566 3.16352V4.21802H17.0377V7.96885C17.0377 8.84093 17.4946 9.27697 18.4083 9.27697C18.843 9.27697 19.2289 9.19244 19.566 9.02336V10.0645C19.2377 10.2514 18.8208 10.3448 18.3152 10.3448C16.6385 10.3448 15.8002 9.55284 15.8002 7.96885V4.21802H14.6159V3.16352H15.8002V1.32147H17.0377V3.16352H19.566Z" fill="#23282B"/>
    <path d="M23.13 3.23026H22.4514L22.1453 0H23.4361L23.13 3.23026Z" fill="#23282B"/>
    <path d="M29.0025 10.3448C26.8202 10.3448 25.7113 9.56618 25.6758 8.0089H26.8335C26.9045 8.85428 27.6408 9.27697 29.0424 9.27697C30.3642 9.27697 31.0251 8.89433 31.0251 8.12903C31.0251 7.87987 30.9585 7.69299 30.8255 7.56841C30.7013 7.44383 30.4795 7.35484 30.1601 7.30145L27.7383 6.86096C26.5496 6.65629 25.9553 6.07342 25.9553 5.11235C25.9553 4.38265 26.2037 3.84427 26.7004 3.49722C27.1972 3.14127 27.969 2.96329 29.0158 2.96329C30.9851 2.96329 32.0097 3.68854 32.0896 5.13904H30.9319C30.8876 4.7564 30.7101 4.47609 30.3996 4.29811C30.0892 4.12013 29.619 4.03115 28.9892 4.03115C27.8004 4.03115 27.2061 4.37375 27.2061 5.05895C27.2061 5.4505 27.4988 5.69967 28.0843 5.80645L30.373 6.22025C31.6416 6.43382 32.2759 7.04783 32.2759 8.06229C32.2759 8.83648 32.0097 9.41046 31.4775 9.78421C30.9452 10.158 30.1202 10.3448 29.0025 10.3448Z" fill="#23282B"/>
    <path d="M71.9202 10.3447C70.5367 10.3447 69.5145 10.0394 68.8536 9.42893C68.1927 8.81844 67.8623 7.88026 67.8623 6.6144C67.8623 5.34854 68.1927 4.41485 68.8536 3.81334C69.5145 3.20285 70.5367 2.89761 71.9202 2.89761C73.0481 2.89761 73.9381 3.12205 74.5902 3.57094C75.2422 4.01085 75.6079 4.64827 75.6872 5.4832H74.4712C74.4095 4.98943 74.1584 4.61685 73.7178 4.36547C73.286 4.10512 72.6868 3.97494 71.9202 3.97494C70.9244 3.97494 70.2063 4.18143 69.7657 4.5944C69.3251 5.00738 69.1048 5.6852 69.1048 6.62787C69.1048 7.57053 69.3207 8.24835 69.7525 8.66133C70.193 9.06533 70.9156 9.26733 71.9202 9.26733C72.6868 9.26733 73.2904 9.12817 73.731 8.84986C74.1716 8.56257 74.4271 8.15409 74.4976 7.6244H75.7269C75.6388 8.49524 75.2643 9.16857 74.6034 9.64439C73.9425 10.1112 73.0481 10.3447 71.9202 10.3447Z" fill="#23282B"/>
    <path d="M79.9617 3.11307V4.85027C80.4904 3.56645 81.4553 2.91556 82.8564 2.89761V4.17694C81.8782 4.18592 81.1645 4.41485 80.7151 4.86374C80.2745 5.30365 80.0233 6.04431 79.9617 7.08573V10.1427H78.7192V3.11307H79.9617Z" fill="#23282B"/>
    <path d="M93.2021 6.56053V6.95107H86.5139C86.5579 7.786 86.8003 8.38302 87.2409 8.74213C87.6814 9.09226 88.3952 9.26733 89.3821 9.26733C90.8978 9.26733 91.7393 8.8768 91.9067 8.09573H93.0831C92.995 8.82293 92.6293 9.37955 91.986 9.76559C91.3516 10.1516 90.4836 10.3447 89.3821 10.3447C87.9987 10.3447 86.9765 10.0394 86.3156 9.42893C85.6547 8.81844 85.3243 7.87577 85.3243 6.60093C85.3243 5.33507 85.6459 4.40138 86.2892 3.79987C86.9324 3.19836 87.937 2.89761 89.3028 2.89761C90.6599 2.89761 91.6468 3.18938 92.2636 3.77294C92.8893 4.34752 93.2021 5.27671 93.2021 6.56053ZM89.3028 3.97494C88.4305 3.97494 87.774 4.12307 87.3334 4.41934C86.9016 4.7156 86.6372 5.20489 86.5403 5.8872H91.9464C91.9111 5.22285 91.682 4.73805 91.2591 4.4328C90.8449 4.12756 90.1928 3.97494 89.3028 3.97494Z" fill="#23282B"/>
    <path d="M99.3251 2.89761C100.453 2.89761 101.29 3.12205 101.837 3.57094C102.383 4.01983 102.656 4.70663 102.656 5.63134V10.1427H101.414V8.91719C100.929 9.86884 100.039 10.3447 98.7435 10.3447C96.7609 10.3447 95.7695 9.62644 95.7695 8.19C95.7695 6.69071 96.8622 5.94107 99.0476 5.94107C99.9376 5.94107 100.726 6.0488 101.414 6.26427V5.63134C101.414 5.05676 101.246 4.63929 100.911 4.37894C100.576 4.1096 100.052 3.97494 99.3383 3.97494C98.0783 3.97494 97.4085 4.3116 97.3292 4.98494H96.1529C96.2498 3.59338 97.3072 2.89761 99.3251 2.89761ZM98.9682 9.30773C99.6644 9.30773 100.228 9.16857 100.66 8.89026C101.101 8.60297 101.352 8.22142 101.414 7.7456V7.28773C100.744 7.07227 99.9772 6.96453 99.1136 6.96453C97.7214 6.96453 97.0252 7.37302 97.0252 8.19C97.0252 8.93515 97.6729 9.30773 98.9682 9.30773Z" fill="#23282B"/>
    <path d="M110.371 3.09961V4.16347H107.859V7.9476C107.859 8.82742 108.313 9.26733 109.221 9.26733C109.653 9.26733 110.036 9.18204 110.371 9.01146V10.0619C110.045 10.2504 109.631 10.3447 109.128 10.3447C107.463 10.3447 106.63 9.54564 106.63 7.9476V4.16347H105.454V3.09961H106.63V1.24121H107.859V3.09961H110.371Z" fill="#23282B"/>
    <path d="M120.828 6.56053V6.95107H114.14C114.184 7.786 114.426 8.38302 114.867 8.74213C115.307 9.09226 116.021 9.26733 117.008 9.26733C118.524 9.26733 119.365 8.8768 119.532 8.09573H120.709C120.621 8.82293 120.255 9.37955 119.612 9.76559C118.977 10.1516 118.109 10.3447 117.008 10.3447C115.624 10.3447 114.602 10.0394 113.941 9.42893C113.28 8.81844 112.95 7.87577 112.95 6.60093C112.95 5.33507 113.272 4.40138 113.915 3.79987C114.558 3.19836 115.563 2.89761 116.929 2.89761C118.286 2.89761 119.273 3.18938 119.889 3.77294C120.515 4.34752 120.828 5.27671 120.828 6.56053ZM116.929 3.97494C116.056 3.97494 115.4 4.12307 114.959 4.41934C114.527 4.7156 114.263 5.20489 114.166 5.8872H119.572C119.537 5.22285 119.308 4.73805 118.885 4.4328C118.471 4.12756 117.819 3.97494 116.929 3.97494Z" fill="#23282B"/>
    <path d="M50.0785 11.9999C55.5272 11.9999 60.0879 8.10974 61.2413 2.89648H55.4983C54.6826 5.55742 52.7956 7.15694 50.0689 7.15694C47.347 7.15694 45.4551 5.55742 44.6395 2.89648H38.8965C40.0789 8.10974 44.6299 11.9999 50.0785 11.9999Z" fill="#23282B"/>
  </symbol>
  <symbol id="big-arrow" viewBox="0 0 34 9" fill="currentColor">
    <path d="M1 4C0.723858 4 0.5 4.22386 0.5 4.5C0.5 4.77614 0.723858 5 1 5V4ZM33.3536 4.85355C33.5488 4.65829 33.5488 4.34171 33.3536 4.14645L30.1716 0.964466C29.9763 0.769204 29.6597 0.769204 29.4645 0.964466C29.2692 1.15973 29.2692 1.47631 29.4645 1.67157L32.2929 4.5L29.4645 7.32843C29.2692 7.52369 29.2692 7.84027 29.4645 8.03553C29.6597 8.2308 29.9763 8.2308 30.1716 8.03553L33.3536 4.85355ZM1 5H33V4H1V5Z" fill="currentColor"/>
  </symbol>

  <symbol id="big-arrow-2" viewBox="0 0 88 24" fill="none">
    <path d="M1 5.25C0.585786 5.25 0.25 5.58579 0.25 6C0.25 6.41421 0.585786 6.75 1 6.75V5.25ZM81.5303 6.53033C81.8232 6.23744 81.8232 5.76256 81.5303 5.46967L76.7574 0.696699C76.4645 0.403806 75.9896 0.403806 75.6967 0.696699C75.4038 0.989593 75.4038 1.46447 75.6967 1.75736L79.9393 6L75.6967 10.2426C75.4038 10.5355 75.4038 11.0104 75.6967 11.3033C75.9896 11.5962 76.4645 11.5962 76.7574 11.3033L81.5303 6.53033ZM1 6.75H81V5.25H1V6.75Z" fill="white"/>
  </symbol>
</svg>
