<svg xmlns="http://www.w3.org/2000/svg">
  <symbol id="menu-burger" viewBox="0 0 40 10">
    <path d="M40 7H0v3h40V7z"/>
    <path d="M40 0H0v3h40V0z"/>
  </symbol>

  <symbol id="menu-cross" viewBox="0 0 24 24">
    <path d="M19.94 5L19 4.06l-7 7L4.94 4 4 4.94 11.06 12 4 19.06l.94.94L12 12.94 19.06 20l.94-.94L12.94 12l7-7z"/>
  </symbol>

  <symbol id="popup-cross" viewBox="0 0 24 24">
    <path fill="var(--white)" d="M19.94 5L19 4.06l-7 7L4.94 4 4 4.94 11.06 12 4 19.06l.94.94L12 12.94 19.06 20l.94-.94L12.94 12l7-7z"/>
  </symbol>

  <symbol id="arrow-down" viewBox="0 0 24 24" fill="none">
    <path stroke-width="1.5" d="M12 4v16m0 0l6-7.11M12 20l-6-7.11"/>
  </symbol>

  <symbol id="arrow-right" viewBox="0 0 24 24" fill="none">
    <path stroke-width="1.5" d="M4 12h16m0 0l-7.11-6M20 12l-7.11 6"/>
  </symbol>

  <symbol id="arrow-left" viewBox="0 0 24 24" fill="none">
    <path stroke-width="1.5" d="M20 12H4m0 0l7.11-6M4 12l7.11 6"/>
  </symbol>

  <symbol id="arrow-top" viewBox="0 0 28 28" fill="none">
    <path stroke-width="1.5" d="M14 24V4m0 0l-8 8.89M14 4l8 8.89"/>
  </symbol>

  <symbol id="add-file" viewBox="0 0 24 24">
    <path class="path" d="M12 21c-2.76 0-5-2.52-5-5.63V7.5c0-.41.3-.75.67-.75.36 0 .66.34.66.75v7.88c0 2.27 1.65 4.12 3.67 4.12s3.67-1.85 3.67-4.13V7.13c0-1.44-1.05-2.62-2.34-2.62C12.05 4.5 11 5.68 11 7.12v7.5c0 .63.45 1.13 1 1.13s1-.5 1-1.13V7.5c0-.41.3-.75.67-.75.36 0 .66.34.66.75v7.13c0 1.44-1.04 2.62-2.33 2.62s-2.33-1.18-2.33-2.63v-7.5C9.67 4.85 11.3 3 13.33 3 15.36 3 17 4.85 17 7.12v8.25c0 3.1-2.24 5.63-5 5.63z"/>
  </symbol>

  <symbol id="play" viewBox="0 0 24 24">
    <path fill-rule="evenodd" clip-rule="evenodd" d="M3.54 12a8.46 8.46 0 1116.92 0 8.46 8.46 0 01-16.92 0zM2 12a10 10 0 1020 0 10 10 0 00-20 0zm12.5 0l-3.98 2.35v-4.7L14.5 12zM8.98 9.64c0-1.19 1.3-1.93 2.33-1.32l3.98 2.35c1 .6 1 2.06 0 2.65l-3.98 2.36a1.54 1.54 0 01-2.33-1.33v-4.7z"/>
  </symbol>

  <symbol id="sort-blocks" viewBox="0 0 24 24" fill="none">
    <path stroke-linecap="round" stroke-linejoin="round" clip-rule="evenodd" stroke-width="1.5" d="M7.75 9.75H5a2 2 0 01-2-2V5c0-1.1.9-2 2-2h2.75a2 2 0 012 2v2.75a2 2 0 01-2 2zM19 9.75h-2.75a2 2 0 01-2-2V5c0-1.1.9-2 2-2H19a2 2 0 012 2v2.75a2 2 0 01-2 2zM7.75 21H5a2 2 0 01-2-2v-2.75c0-1.1.9-2 2-2h2.75a2 2 0 012 2V19a2 2 0 01-2 2zM19 21h-2.75a2 2 0 01-2-2v-2.75c0-1.1.9-2 2-2H19a2 2 0 012 2V19a2 2 0 01-2 2z"/>
  </symbol>

  <symbol id="sort-lines" viewBox="0 0 24 24" fill="none">
    <path stroke-linecap="round" stroke-linejoin="round" clip-rule="evenodd" stroke-width="1.5" d="M21 5v2.75a2 2 0 01-2 2H5a2 2 0 01-2-2V5c0-1.1.9-2 2-2h14a2 2 0 012 2zM21 16.25V19a2 2 0 01-2 2H5a2 2 0 01-2-2v-2.75c0-1.1.9-2 2-2h14a2 2 0 012 2z" />
  </symbol>

  <symbol id="refresh" viewBox="0 0 16 16">
    <path d="M12.95 4.46A7.08 7.08 0 008 2.48H6.97L8.62.88 7.7 0 4.5 3.1l3.16 3.11.93-.87-1.64-1.6H8c3.15 0 5.7 2.46 5.7 5.5s-2.55 5.5-5.7 5.5a5.62 5.62 0 01-5.7-5.5V8.6H1v.63c0 1.8.73 3.5 2.05 4.78A7.08 7.08 0 008 16c1.87 0 3.63-.7 4.95-1.98a6.6 6.6 0 000-9.56z"/>
  </symbol>

  <symbol id="cookies" viewBox="0 0 30 30" fill="none">
    <path stroke-linecap="round" stroke-linejoin="round" stroke-width="2" d="M9.5 17.34a.16.16 0 00-.16.16c0 .09.07.16.16.16a.16.16 0 000-.32M11.5 11.34a.16.16 0 00-.16.16c0 .09.07.16.16.16a.16.16 0 100-.32M16.5 20.34a.16.16 0 00-.16.16c0 .09.07.16.16.16a.16.16 0 100-.32M14.5 15.34a.16.16 0 00-.16.16c0 .09.07.16.16.16a.16.16 0 000-.32"/>
    <path stroke-linecap="round" stroke-linejoin="round" clip-rule="evenodd" stroke-width="2" d="M15 4a11 11 0 0011 11A11 11 0 1115 4z"/>
  </symbol>

  <symbol id="cross" viewBox="0 0 16 16" fill="none">
    <path fill="var(--typo-primary-color)" fill-rule="evenodd" d="M8.8 0H7.2v7.2H0v1.6h7.2V16h1.6V8.8H16V7.2H8.8V0Z" clip-rule="evenodd"/>
  </symbol>

  <symbol id="strategy" viewBox="0 0 180 60" fill="none">
    <path fill="var(--typo-secondary-color)" d="M115.13 0l4.84 4.85-19.3 19.3-4.84-4.85L115.13 0zm13.34 26.86v6.86h-27.3v-6.86h27.3zm-8.5 28.23l-4.84 4.85-19.3-19.3 4.84-4.85 19.3 19.3zM27.3.06l4.85 4.85-19.3 19.3L8 19.36 27.3.06zm13.33 26.85v6.87h-27.3v-6.86h27.3zm-8.48 28.24L27.3 60 8 40.7l4.85-4.85 19.3 19.3z"/>
    <path fill="var(--typo-primary-color)" d="M64.9 0l-4.85 4.85 19.3 19.3 4.87-4.85L64.92 0zM51.56 26.85v6.87h27.3v-6.86h-27.3zm8.5 28.24l4.84 4.85 19.3-19.3-4.84-4.85-19.3 19.3z"/>
    <path fill="var(--typo-secondary-color)" d="M152.7.06l-4.84 4.85 19.3 19.3 4.84-4.85L152.7.06zm-13.33 26.85v6.87h27.3V26.9h-27.3zm8.48 28.24l4.86 4.85L172 40.7l-4.85-4.86-19.3 19.3z"/>
  </symbol>

  <symbol id="branding" viewBox="0 0 180 60" fill="none">
    <path fill="var(--typo-primary-color)" d="M115.13 0l4.84 4.85-19.3 19.3-4.84-4.85L115.13 0zm4.84 55.09l-4.84 4.85-19.3-19.3 4.84-4.85 19.3 19.3z"/>
    <path fill="var(--typo-secondary-color)" d="M27.3.06l4.85 4.85-19.3 19.3L8 19.36 27.3.06zm4.85 55.09L27.3 60 8 40.7l4.85-4.85 19.3 19.3z"/>
    <path fill="var(--typo-primary-color)" d="M64.9 0l-4.85 4.85 19.3 19.3 4.87-4.85L64.92 0zm-4.85 55.09l4.86 4.85 19.3-19.3-4.85-4.86-19.3 19.3z"/>
    <path fill="var(--typo-secondary-color)" d="M152.7.06l-4.84 4.85 19.3 19.3 4.84-4.85L152.7.06zm-4.84 55.09L152.7 60 172 40.7l-4.84-4.86-19.3 19.3z"/>
  </symbol>

  <symbol id="develop" viewBox="0 0 180 60" fill="none">
    <path fill="var(--typo-primary-color)" d="M112.52 60l-4.86-4.85 19.31-19.31 4.86 4.85L112.52 60zm-4.86-55.1l4.86-4.86 19.3 19.3-4.85 4.86-19.3-19.3zM67.63 60l4.86-4.85-19.31-19.31-4.86 4.85L67.63 60zm4.86-55.1L67.63.03l-19.3 19.3 4.85 4.86 19.3-19.3z"/>
    <path fill="var(--typo-secondary-color)" d="M78.02 37.23l4.85 4.85 19.31-19.3-4.85-4.86-19.31 19.31zM27.27 0l4.86 4.85-19.31 19.31-4.86-4.85L27.27 0zm4.86 55.1l-4.86 4.86-19.3-19.3 4.85-4.86 19.3 19.3zM152.73 0l-4.86 4.85 19.31 19.32 4.86-4.86L152.73.01zm-4.86 55.1l4.86 4.86 19.3-19.3-4.85-4.86-19.3 19.3z"/>
  </symbol>

  <symbol id="design" viewBox="0 0 180 60" fill="none">
    <path fill="var(--typo-secondary-color)" d="M21.3 59.92l-4.86-4.84 19.3-19.3 4.85 4.84-19.3 19.3zM7.95 33.06V26.2h27.3v6.86H7.96zm8.5-28.23L21.3 0l19.3 19.3-4.86 4.85-19.3-19.3z"/>
    <path fill="var(--typo-primary-color)" d="M75.33 26.93v6.85h27.3v-6.86h-27.3zm-28-7.7l4.84 4.84 19.3-19.3-4.84-4.84-19.3 19.3zm79.7 4.54l4.75-4.95-19.7-18.9-4.75 4.96 19.7 18.9zm4.44 17l-4.84-4.85-19.3 19.3 4.84 4.86 19.3-19.3zm-79.4-4.85l-4.74 4.95 19.7 18.9 4.75-4.96-19.7-18.89z"/>
    <path fill="var(--typo-secondary-color)" d="M158.7 59.92l4.86-4.84-19.3-19.3-4.86 4.84 19.3 19.3zm13.34-26.84V26.2h-27.3v6.86h27.3zm-8.48-28.24L158.7-.01l-19.3 19.3 4.84 4.85 19.3-19.3z"/>
  </symbol>

  <symbol id="logo" viewBox="0 0 24 24">
    <path d="M.89.89v3.7h13.89V.9H.88Z"/>
    <path d="m17.5 9.3-2.62-2.62-9.83 9.82 2.62 2.62 9.82-9.83Z"/>
    <path d="M19.4 23.11h3.71V9.22h-3.7v13.9Z"/>
  </symbol>

  <symbol id="play-button" viewBox="0 0 40 44" fill="none">
    <path fill="#fff" d="M38.65 19.35 3.85.37A2.8 2.8 0 0 0 2.49 0C1.12 0 0 1.03 0 2.3H0v39.4h.01c0 1.27 1.11 2.3 2.48 2.3.51 0 .93-.16 1.4-.39l34.76-18.96A3.33 3.33 0 0 0 40 22c0-1.07-.52-2-1.35-2.65Z"/>
  </symbol>

  <symbol id="analytics-strategy" viewBox="0 0 186 60" fill="none">
    <path d="M117.803 9.239e-05L122.654 4.85156L103.351 24.1552L98.4991 19.3038L117.803 9.239e-05Z" fill="var(--typo-secondary-color)"/>
    <path d="M131.145 26.8553L131.145 33.7163L103.846 33.717L103.847 26.856L131.145 26.8553Z" fill="var(--typo-secondary-color)"/>
    <path d="M122.654 55.0897L117.803 59.9414L98.5001 40.6388L103.352 35.787L122.654 55.0897Z" fill="var(--typo-secondary-color)"/>
    <path d="M29.9708 0.0591744L34.8223 4.91064L15.5186 24.2143L10.6671 19.3629L29.9708 0.0591744Z" fill="var(--typo-secondary-color)"/>
    <path d="M43.3127 26.9143L43.3125 33.7754L16.0143 33.7761L16.0145 26.9151L43.3127 26.9143Z" fill="var(--typo-secondary-color)"/>
    <path d="M34.8224 55.1488L29.9707 60.0005L10.6681 40.6978L15.5198 35.8461L34.8224 55.1488Z" fill="var(--typo-secondary-color)"/>
    <path d="M67.5839 0.00106936L62.7324 4.85254L82.0361 24.1562L86.8876 19.3047L67.5839 0.00106936Z" fill="var(--typo-primary-color)"/>
    <path d="M54.244 26.8548L54.2441 33.7158L81.5423 33.7166L81.5422 26.8555L54.244 26.8548Z" fill="var(--typo-primary-color)"/>
    <path d="M62.7323 55.0877L67.584 59.9395L86.8866 40.6368L82.0349 35.7851L62.7323 55.0877Z" fill="var(--typo-primary-color)"/>
    <path d="M155.379 0.0606397L150.527 4.91211L169.831 24.2158L174.682 19.3643L155.379 0.0606397Z" fill="var(--typo-secondary-color)"/>
    <path d="M142.039 26.9143L142.039 33.7754L169.337 33.7761L169.337 26.9151L142.039 26.9143Z" fill="var(--typo-secondary-color)"/>
    <path d="M150.527 55.1473L155.379 59.999L174.682 40.6964L169.83 35.8446L150.527 55.1473Z" fill="var(--typo-secondary-color)"/>
  </symbol>

  <symbol id="branding-design" viewBox="0 0 186 60" fill="none">
    <path d="M117.803 9.239e-05L122.654 4.85156L103.351 24.1552L98.4991 19.3038L117.803 9.239e-05Z" fill="var(--typo-primary-color)"/>
    <path d="M122.654 55.0897L117.803 59.9414L98.5001 40.6388L103.352 35.787L122.654 55.0897Z" fill="var(--typo-primary-color)"/>
    <path d="M29.9708 0.0591744L34.8223 4.91064L15.5186 24.2143L10.6671 19.3629L29.9708 0.0591744Z" fill="var(--typo-secondary-color)"/>
    <path d="M34.8224 55.1488L29.9707 60.0005L10.6681 40.6978L15.5198 35.8461L34.8224 55.1488Z" fill="var(--typo-secondary-color)"/>
    <path d="M67.5839 0.00106936L62.7324 4.85254L82.0361 24.1562L86.8876 19.3047L67.5839 0.00106936Z" fill="var(--typo-primary-color)"/>
    <path d="M62.7323 55.0877L67.584 59.9395L86.8866 40.6368L82.0349 35.7851L62.7323 55.0877Z" fill="var(--typo-primary-color)"/>
    <path d="M155.379 0.0606397L150.527 4.91211L169.831 24.2158L174.682 19.3643L155.379 0.0606397Z" fill="var(--typo-secondary-color)"/>
    <path d="M150.527 55.1473L155.379 59.999L174.682 40.6964L169.83 35.8446L150.527 55.1473Z" fill="var(--typo-secondary-color)"/>
  </symbol>

  <symbol id="sites-services" viewBox="0 0 186 60" fill="none">
    <path d="M115.226 60.0002L110.373 55.147L129.684 35.8364L134.537 40.6896L115.226 60.0002Z" fill="var(--typo-primary-color)"/>
    <path d="M110.373 4.89252L115.227 0.0390625L134.536 19.3486L129.683 24.2021L110.373 4.89252Z" fill="var(--typo-primary-color)"/>
    <path d="M70.3441 60.0002L75.1973 55.147L55.8867 35.8364L51.0335 40.6896L70.3441 60.0002Z" fill="var(--typo-primary-color)"/>
    <path d="M75.1972 4.89252L70.3438 0.0390625L51.0342 19.3486L55.8877 24.2021L75.1972 4.89252Z" fill="var(--typo-primary-color)"/>
    <path d="M80.7267 37.2314L85.5801 42.0845L104.89 22.7754L100.037 17.9223L80.7267 37.2314Z" fill="var(--typo-secondary-color)"/>
    <path d="M29.9827 -0.000173485L34.8359 4.85303L15.5254 24.1636L10.6722 19.3104L29.9827 -0.000173485Z" fill="var(--typo-secondary-color)"/>
    <path d="M34.8359 55.1094L29.9824 59.9629L10.6729 40.6534L15.5263 35.7999L34.8359 55.1094Z" fill="var(--typo-secondary-color)"/>
    <path d="M155.435 0.00129177L150.582 4.85449L169.893 24.1651L174.746 19.3119L155.435 0.00129177Z" fill="var(--typo-secondary-color)"/>
    <path d="M150.582 55.108L155.436 59.9614L174.745 40.6519L169.892 35.7984L150.582 55.108Z" fill="var(--typo-secondary-color)"/>
  </symbol>

  <symbol id="smm-advertising" viewBox="0 0 162 60" fill="none">
    <path d="M3.14661e-10 0.000167847L0 7.02686L27.9587 7.02686L27.9587 0.000167848L3.14661e-10 0.000167847Z" fill="var(--typo-secondary-color)"/>
    <path d="M36.3792 43.4067L43.4062 43.4067L43.4063 15.4495L36.3792 15.4495L36.3792 43.4067Z" fill="var(--typo-secondary-color)"/>
    <path d="M53.9277 0.000167847L53.9277 7.02686L81.8865 7.02686L81.8865 0.000167848L53.9277 0.000167847Z" fill="var(--typo-primary-color)"/>
    <path d="M90.3069 43.4067L97.334 43.4067L97.334 15.4495L90.3069 15.4495L90.3069 43.4067Z" fill="var(--typo-primary-color)"/>
    <path d="M107.855 0.000167847L107.855 7.02686L135.814 7.02686L135.814 0.000167848L107.855 0.000167847Z" fill="var(--typo-secondary-color)"/>
    <path d="M144.235 43.4067L151.262 43.4067L151.262 15.4495L144.235 15.4495L144.235 43.4067Z" fill="var(--typo-secondary-color)"/>
    <path d="M53.9375 59.9998L53.9375 52.9731L25.9788 52.9731L25.9788 59.9998L53.9375 59.9998Z" fill="var(--typo-primary-color)"/>
    <path d="M17.5583 16.5933L10.5312 16.5933L10.5313 44.5505L17.5583 44.5505L17.5583 16.5933Z" fill="var(--typo-primary-color)"/>
    <path d="M107.865 59.9998L107.865 52.9731L79.9065 52.9731L79.9065 59.9998L107.865 59.9998Z" fill="var(--typo-secondary-color)"/>
    <path d="M71.486 16.5933L64.459 16.5933L64.459 44.5505L71.486 44.5505L71.486 16.5933Z" fill="var(--typo-secondary-color)"/>
    <path d="M161.793 59.9998L161.793 52.9731L133.834 52.9731L133.834 59.9998L161.793 59.9998Z" fill="var(--typo-secondary-color)"/>
    <path d="M125.414 16.5933L118.387 16.5933L118.387 44.5505L125.414 44.5505L125.414 16.5933Z" fill="var(--typo-secondary-color)"/>
  </symbol>
</svg>
