<svg xmlns="http://www.w3.org/2000/svg">
  <symbol id="menu-burger" viewBox="0 0 40 10">
    <path d="M40 7H0v3h40V7z"/>
    <path d="M40 0H0v3h40V0z"/>
  </symbol>

  <symbol id="menu-cross" viewBox="0 0 24 24">
    <path d="M19.94 5L19 4.06l-7 7L4.94 4 4 4.94 11.06 12 4 19.06l.94.94L12 12.94 19.06 20l.94-.94L12.94 12l7-7z"/>
  </symbol>

  <symbol id="arrow-down" viewBox="0 0 24 24" fill="none">
    <path stroke-width="1.5" d="M12 4v16m0 0l6-7.11M12 20l-6-7.11"/>
  </symbol>

  <symbol id="arrow-right" viewBox="0 0 24 24" fill="none">
    <path stroke-width="1.5" d="M4 12h16m0 0l-7.11-6M20 12l-7.11 6"/>
  </symbol>

  <symbol id="arrow-left" viewBox="0 0 24 24" fill="none">
    <path stroke-width="1.5" d="M20 12H4m0 0l7.11-6M4 12l7.11 6"/>
  </symbol>

  <symbol id="arrow-top" viewBox="0 0 28 28" fill="none">
    <path stroke-width="1.5" d="M14 24V4m0 0l-8 8.89M14 4l8 8.89"/>
  </symbol>

  <symbol id="add-file" viewBox="0 0 24 24">
    <path class="path" d="M12 21c-2.76 0-5-2.52-5-5.63V7.5c0-.41.3-.75.67-.75.36 0 .66.34.66.75v7.88c0 2.27 1.65 4.12 3.67 4.12s3.67-1.85 3.67-4.13V7.13c0-1.44-1.05-2.62-2.34-2.62C12.05 4.5 11 5.68 11 7.12v7.5c0 .63.45 1.13 1 1.13s1-.5 1-1.13V7.5c0-.41.3-.75.67-.75.36 0 .66.34.66.75v7.13c0 1.44-1.04 2.62-2.33 2.62s-2.33-1.18-2.33-2.63v-7.5C9.67 4.85 11.3 3 13.33 3 15.36 3 17 4.85 17 7.12v8.25c0 3.1-2.24 5.63-5 5.63z"/>
  </symbol>

  <symbol id="play" viewBox="0 0 24 24">
    <path fill-rule="evenodd" clip-rule="evenodd" d="M3.54 12a8.46 8.46 0 1116.92 0 8.46 8.46 0 01-16.92 0zM2 12a10 10 0 1020 0 10 10 0 00-20 0zm12.5 0l-3.98 2.35v-4.7L14.5 12zM8.98 9.64c0-1.19 1.3-1.93 2.33-1.32l3.98 2.35c1 .6 1 2.06 0 2.65l-3.98 2.36a1.54 1.54 0 01-2.33-1.33v-4.7z"/>
  </symbol>

  <symbol id="sort-blocks" viewBox="0 0 24 24" fill="none">
    <path stroke-linecap="round" stroke-linejoin="round" clip-rule="evenodd" stroke-width="1.5" d="M7.75 9.75H5a2 2 0 01-2-2V5c0-1.1.9-2 2-2h2.75a2 2 0 012 2v2.75a2 2 0 01-2 2zM19 9.75h-2.75a2 2 0 01-2-2V5c0-1.1.9-2 2-2H19a2 2 0 012 2v2.75a2 2 0 01-2 2zM7.75 21H5a2 2 0 01-2-2v-2.75c0-1.1.9-2 2-2h2.75a2 2 0 012 2V19a2 2 0 01-2 2zM19 21h-2.75a2 2 0 01-2-2v-2.75c0-1.1.9-2 2-2H19a2 2 0 012 2V19a2 2 0 01-2 2z"/>
  </symbol>

  <symbol id="sort-lines" viewBox="0 0 24 24" fill="none">
    <path stroke-linecap="round" stroke-linejoin="round" clip-rule="evenodd" stroke-width="1.5" d="M21 5v2.75a2 2 0 01-2 2H5a2 2 0 01-2-2V5c0-1.1.9-2 2-2h14a2 2 0 012 2zM21 16.25V19a2 2 0 01-2 2H5a2 2 0 01-2-2v-2.75c0-1.1.9-2 2-2h14a2 2 0 012 2z" />
  </symbol>

  <symbol id="refresh" viewBox="0 0 16 16">
    <path d="M12.95 4.46A7.08 7.08 0 008 2.48H6.97L8.62.88 7.7 0 4.5 3.1l3.16 3.11.93-.87-1.64-1.6H8c3.15 0 5.7 2.46 5.7 5.5s-2.55 5.5-5.7 5.5a5.62 5.62 0 01-5.7-5.5V8.6H1v.63c0 1.8.73 3.5 2.05 4.78A7.08 7.08 0 008 16c1.87 0 3.63-.7 4.95-1.98a6.6 6.6 0 000-9.56z"/>
  </symbol>

  <symbol id="cookies" viewBox="0 0 30 30" fill="none">
    <path stroke-linecap="round" stroke-linejoin="round" stroke-width="2" d="M9.5 17.34a.16.16 0 00-.16.16c0 .09.07.16.16.16a.16.16 0 000-.32M11.5 11.34a.16.16 0 00-.16.16c0 .09.07.16.16.16a.16.16 0 100-.32M16.5 20.34a.16.16 0 00-.16.16c0 .09.07.16.16.16a.16.16 0 100-.32M14.5 15.34a.16.16 0 00-.16.16c0 .09.07.16.16.16a.16.16 0 000-.32"/>
    <path stroke-linecap="round" stroke-linejoin="round" clip-rule="evenodd" stroke-width="2" d="M15 4a11 11 0 0011 11A11 11 0 1115 4z"/>
  </symbol>

  <symbol id="cross" viewBox="0 0 16 16" fill="none">
    <path fill="var(--typo-primary-color)" fill-rule="evenodd" d="M8.8 0H7.2v7.2H0v1.6h7.2V16h1.6V8.8H16V7.2H8.8V0Z" clip-rule="evenodd"/>
  </symbol>

  <symbol id="strategy" viewBox="0 0 180 60" fill="none">
    <path fill="var(--typo-secondary-color)" d="M115.13 0l4.84 4.85-19.3 19.3-4.84-4.85L115.13 0zm13.34 26.86v6.86h-27.3v-6.86h27.3zm-8.5 28.23l-4.84 4.85-19.3-19.3 4.84-4.85 19.3 19.3zM27.3.06l4.85 4.85-19.3 19.3L8 19.36 27.3.06zm13.33 26.85v6.87h-27.3v-6.86h27.3zm-8.48 28.24L27.3 60 8 40.7l4.85-4.85 19.3 19.3z"/>
    <path fill="var(--typo-primary-color)" d="M64.9 0l-4.85 4.85 19.3 19.3 4.87-4.85L64.92 0zM51.56 26.85v6.87h27.3v-6.86h-27.3zm8.5 28.24l4.84 4.85 19.3-19.3-4.84-4.85-19.3 19.3z"/>
    <path fill="var(--typo-secondary-color)" d="M152.7.06l-4.84 4.85 19.3 19.3 4.84-4.85L152.7.06zm-13.33 26.85v6.87h27.3V26.9h-27.3zm8.48 28.24l4.86 4.85L172 40.7l-4.85-4.86-19.3 19.3z"/>
  </symbol>

  <symbol id="branding" viewBox="0 0 180 60" fill="none">
    <path fill="var(--typo-primary-color)" d="M115.13 0l4.84 4.85-19.3 19.3-4.84-4.85L115.13 0zm4.84 55.09l-4.84 4.85-19.3-19.3 4.84-4.85 19.3 19.3z"/>
    <path fill="var(--typo-secondary-color)" d="M27.3.06l4.85 4.85-19.3 19.3L8 19.36 27.3.06zm4.85 55.09L27.3 60 8 40.7l4.85-4.85 19.3 19.3z"/>
    <path fill="var(--typo-primary-color)" d="M64.9 0l-4.85 4.85 19.3 19.3 4.87-4.85L64.92 0zm-4.85 55.09l4.86 4.85 19.3-19.3-4.85-4.86-19.3 19.3z"/>
    <path fill="var(--typo-secondary-color)" d="M152.7.06l-4.84 4.85 19.3 19.3 4.84-4.85L152.7.06zm-4.84 55.09L152.7 60 172 40.7l-4.84-4.86-19.3 19.3z"/>
  </symbol>

  <symbol id="develop" viewBox="0 0 180 60" fill="none">
    <path fill="var(--typo-primary-color)" d="M112.52 60l-4.86-4.85 19.31-19.31 4.86 4.85L112.52 60zm-4.86-55.1l4.86-4.86 19.3 19.3-4.85 4.86-19.3-19.3zM67.63 60l4.86-4.85-19.31-19.31-4.86 4.85L67.63 60zm4.86-55.1L67.63.03l-19.3 19.3 4.85 4.86 19.3-19.3z"/>
    <path fill="var(--typo-secondary-color)" d="M78.02 37.23l4.85 4.85 19.31-19.3-4.85-4.86-19.31 19.31zM27.27 0l4.86 4.85-19.31 19.31-4.86-4.85L27.27 0zm4.86 55.1l-4.86 4.86-19.3-19.3 4.85-4.86 19.3 19.3zM152.73 0l-4.86 4.85 19.31 19.32 4.86-4.86L152.73.01zm-4.86 55.1l4.86 4.86 19.3-19.3-4.85-4.86-19.3 19.3z"/>
  </symbol>

  <symbol id="design" viewBox="0 0 180 60" fill="none">
    <path fill="var(--typo-secondary-color)" d="M21.3 59.92l-4.86-4.84 19.3-19.3 4.85 4.84-19.3 19.3zM7.95 33.06V26.2h27.3v6.86H7.96zm8.5-28.23L21.3 0l19.3 19.3-4.86 4.85-19.3-19.3z"/>
    <path fill="var(--typo-primary-color)" d="M75.33 26.93v6.85h27.3v-6.86h-27.3zm-28-7.7l4.84 4.84 19.3-19.3-4.84-4.84-19.3 19.3zm79.7 4.54l4.75-4.95-19.7-18.9-4.75 4.96 19.7 18.9zm4.44 17l-4.84-4.85-19.3 19.3 4.84 4.86 19.3-19.3zm-79.4-4.85l-4.74 4.95 19.7 18.9 4.75-4.96-19.7-18.89z"/>
    <path fill="var(--typo-secondary-color)" d="M158.7 59.92l4.86-4.84-19.3-19.3-4.86 4.84 19.3 19.3zm13.34-26.84V26.2h-27.3v6.86h27.3zm-8.48-28.24L158.7-.01l-19.3 19.3 4.84 4.85 19.3-19.3z"/>
  </symbol>

  <symbol id="logo" viewBox="0 0 24 24">
    <path d="M.89.89v3.7h13.89V.9H.88Z"/>
    <path d="m17.5 9.3-2.62-2.62-9.83 9.82 2.62 2.62 9.82-9.83Z"/>
    <path d="M19.4 23.11h3.71V9.22h-3.7v13.9Z"/>
  </symbol>

  <symbol id="play-button" viewBox="0 0 40 44" fill="none">
    <path fill="#fff" d="M38.65 19.35 3.85.37A2.8 2.8 0 0 0 2.49 0C1.12 0 0 1.03 0 2.3H0v39.4h.01c0 1.27 1.11 2.3 2.48 2.3.51 0 .93-.16 1.4-.39l34.76-18.96A3.33 3.33 0 0 0 40 22c0-1.07-.52-2-1.35-2.65Z"/>
  </symbol>
</svg>
