<svg xmlns="http://www.w3.org/2000/svg" width="673.081" height="287.65" viewBox="0 0 673.081 287.65">
  <g id="Group_3709" data-name="Group 3709" transform="translate(-960 -410.32)">
    <path id="Path_1524" data-name="Path 1524" d="M538.81,324.894c-59.943,0-102.981,38.458-102.981,128.192,0,101.7,43.038,128.62,102.981,128.62s105.545-29.484,105.545-128.62C644.355,347.114,598.753,324.894,538.81,324.894Zm.394,223.054c-41.518,0-63.208-24.357-63.208-94.8,0-62.152,22.578-94.928,64.1-94.928s64.1,21.529,64.1,94.928c0,68.664-23.467,94.8-64.984,94.8Z" transform="translate(745.943 93.618)" fill="#2b2f38"/>
    <path id="Path_1525" data-name="Path 1525" d="M303.736,515.15H278.953V442.168a14.616,14.616,0,0,0-14.616-14.616H258.53a14.616,14.616,0,0,0-14.616,14.616V515.15H174.007a8.344,8.344,0,0,1-7.377-12.242l73.988-140.036a14.616,14.616,0,0,0-6.682-20.044l-4.368-2.063a14.616,14.616,0,0,0-19.131,6.326L120.2,515.9a19.819,19.819,0,0,0-2.341,9.343h0a19.819,19.819,0,0,0,19.819,19.819H243.914V591.21a17.52,17.52,0,0,0,17.52,17.52h0a17.519,17.519,0,0,0,17.52-17.52V545.061h24.784a14.956,14.956,0,0,0,14.956-14.956h0a14.956,14.956,0,0,0-14.956-14.956Z" transform="translate(842.142 89.241)" fill="#fdb813"/>
    <path id="Path_1526" data-name="Path 1526" d="M961.732,515.15H936.948V442.168a14.616,14.616,0,0,0-14.614-14.616h-5.807a14.616,14.616,0,0,0-14.616,14.616V515.15H832a8.344,8.344,0,0,1-7.377-12.242l73.989-140.036a14.616,14.616,0,0,0-6.682-20.044l-4.368-2.063a14.616,14.616,0,0,0-19.131,6.326L778.2,515.9a19.818,19.818,0,0,0-2.341,9.343h0a19.819,19.819,0,0,0,19.819,19.819H901.91V591.21a17.519,17.519,0,0,0,17.519,17.52h0a17.519,17.519,0,0,0,17.52-17.52V545.061h24.784a14.956,14.956,0,0,0,14.956-14.956h0a14.956,14.956,0,0,0-14.957-14.956Z" transform="translate(643.073 89.241)" fill="#fdb813"/>
    <path id="Path_1527" data-name="Path 1527" d="M313.539,502.9H288.756V429.915A14.616,14.616,0,0,0,274.14,415.3h-5.807a14.616,14.616,0,0,0-14.616,14.616V502.9H183.809a8.344,8.344,0,0,1-7.377-12.242l73.989-140.036a14.616,14.616,0,0,0-6.682-20.044l-4.368-2.063a14.616,14.616,0,0,0-19.131,6.326L130,503.646a19.819,19.819,0,0,0-2.341,9.343h0a19.819,19.819,0,0,0,19.819,19.819H253.716v46.149a17.52,17.52,0,0,0,17.52,17.52h0a17.52,17.52,0,0,0,17.52-17.52V532.808h24.784a14.956,14.956,0,0,0,14.956-14.956h0A14.956,14.956,0,0,0,313.54,502.9Z" transform="translate(839.176 92.948)" fill="none" stroke="#777d89" stroke-miterlimit="10" stroke-width="1"/>
    <path id="Path_1528" data-name="Path 1528" d="M980.112,502.9H955.328V429.915A14.616,14.616,0,0,0,940.712,415.3h-5.806a14.616,14.616,0,0,0-14.616,14.616V502.9H850.383a8.344,8.344,0,0,1-7.377-12.242l73.988-140.036a14.616,14.616,0,0,0-6.682-20.044l-4.368-2.063a14.616,14.616,0,0,0-19.131,6.326L796.575,503.646a19.819,19.819,0,0,0-2.341,9.343h0a19.819,19.819,0,0,0,19.819,19.819H920.29v46.149a17.519,17.519,0,0,0,17.519,17.52h0a17.52,17.52,0,0,0,17.519-17.52V532.808h24.784a14.956,14.956,0,0,0,14.956-14.956h0A14.956,14.956,0,0,0,980.112,502.9Z" transform="translate(637.512 92.948)" fill="none" stroke="#777d89" stroke-miterlimit="10" stroke-width="1"/>
    <path id="Path_1529" data-name="Path 1529" d="M558.415,313.866c-59.943,0-102.981,38.458-102.981,128.192,0,101.7,43.038,128.62,102.981,128.62S663.96,541.194,663.96,442.058C663.96,336.086,618.358,313.866,558.415,313.866Zm.394,223.054c-41.518,0-63.208-24.357-63.208-94.8,0-62.152,22.578-94.928,64.1-94.928s64.1,21.529,64.1,94.928c0,68.664-23.466,94.8-64.984,94.8Z" transform="translate(740.012 96.954)" fill="none" stroke="#777d89" stroke-miterlimit="10" stroke-width="1"/>
  </g>
</svg>
