<svg xmlns="http://www.w3.org/2000/svg" width="11.195" height="19.725" viewBox="0 0 11.195 19.725">
  <path id="facebook" d="M7.415,19.724H4.257a.958.958,0,0,1-.957-.957V11.643H1.457A.958.958,0,0,1,.5,10.686V7.633a.958.958,0,0,1,.957-.957H3.3V5.147A5.205,5.205,0,0,1,4.676,1.418,4.958,4.958,0,0,1,8.331,0L10.74,0A.958.958,0,0,1,11.7.96V3.795a.958.958,0,0,1-.956.957H9.117c-.495,0-.621.1-.648.13-.044.05-.1.193-.1.586V6.676h2.245a.972.972,0,0,1,.473.12.96.96,0,0,1,.492.837v3.053a.958.958,0,0,1-.957.956H8.372v7.125a.958.958,0,0,1-.957.957ZM4.456,18.568h2.76V11.125a.64.64,0,0,1,.639-.639h2.571V7.833H7.854a.639.639,0,0,1-.639-.639V5.468A1.969,1.969,0,0,1,7.6,4.117,1.96,1.96,0,0,1,9.117,3.6h1.422V1.16l-2.209,0A3.65,3.65,0,0,0,4.456,5.147V7.194a.64.64,0,0,1-.639.639H1.656v2.654H3.817a.639.639,0,0,1,.639.639ZM10.738,1.16h0Zm0,0" transform="translate(-0.5 0)" fill="#fff"/>
</svg>
