<svg id="instagram" xmlns="http://www.w3.org/2000/svg" width="20.9" height="20.9" viewBox="0 0 20.9 20.9">
  <g id="Group_42" data-name="Group 42">
    <g id="Group_41" data-name="Group 41">
      <path id="Path_98" data-name="Path 98" d="M15.253,0H5.647A5.654,5.654,0,0,0,0,5.647v9.606A5.654,5.654,0,0,0,5.647,20.9h9.606A5.654,5.654,0,0,0,20.9,15.253V5.647A5.654,5.654,0,0,0,15.253,0Zm3.959,15.253a3.963,3.963,0,0,1-3.959,3.959H5.647a3.963,3.963,0,0,1-3.959-3.959V5.647A3.963,3.963,0,0,1,5.647,1.688h9.606a3.963,3.963,0,0,1,3.959,3.959Z" fill="#fff"/>
    </g>
  </g>
  <g id="Group_44" data-name="Group 44" transform="translate(5.804 5.722)">
    <g id="Group_43" data-name="Group 43">
      <path id="Path_99" data-name="Path 99" d="M151.508,144.17a4.686,4.686,0,1,0-4.646,5.375,4.75,4.75,0,0,0,.7-.052,4.687,4.687,0,0,0,3.948-5.323Zm-4.2,3.653a3,3,0,1,1,2.526-3.405A2.978,2.978,0,0,1,147.312,147.823Z" transform="translate(-142.185 -140.171)" fill="#fff"/>
    </g>
  </g>
  <g id="Group_46" data-name="Group 46" transform="translate(14.889 4.323)">
    <g id="Group_45" data-name="Group 45">
      <path id="Path_100" data-name="Path 100" d="M366.182,106.14a.844.844,0,1,0,.247.6A.85.85,0,0,0,366.182,106.14Z" transform="translate(-364.741 -105.893)" fill="#fff"/>
    </g>
  </g>
</svg>
