<svg xmlns="http://www.w3.org/2000/svg" width="26.42" height="18.247" viewBox="0 0 26.42 18.247">
  <g id="Asset_1" data-name="Asset 1" transform="translate(0 0.004)">
    <g id="Layer_1" data-name="Layer 1" transform="translate(0 -0.004)">
      <path id="Path_95" data-name="Path 95" d="M0,17.81V0H6.7A8.334,8.334,0,0,1,9.972.537a4.345,4.345,0,0,1,1.941,1.674,4.4,4.4,0,0,1,.694,2.351,3.9,3.9,0,0,1-.623,2.155,4.345,4.345,0,0,1-1.87,1.638,4.683,4.683,0,0,1,2.493,1.62,4.4,4.4,0,0,1,.873,2.707,5.218,5.218,0,0,1-.534,2.333,4.612,4.612,0,0,1-1.3,1.656,5.5,5.5,0,0,1-1.959.873A11.2,11.2,0,0,1,6.8,17.81ZM2.368,7.5H6.215a8.459,8.459,0,0,0,2.262-.214A2.475,2.475,0,0,0,9.83,6.413a2.636,2.636,0,0,0,.463-1.567,2.92,2.92,0,0,0-.427-1.567,2.244,2.244,0,0,0-1.229-.926A10.311,10.311,0,0,0,5.93,2.1H2.368Zm0,8.245H6.8a10.382,10.382,0,0,0,1.6-.089,3.668,3.668,0,0,0,1.371-.481,2.9,2.9,0,0,0,.908-.926,3.1,3.1,0,0,0,.338-1.5,3.009,3.009,0,0,0-.5-1.781A2.814,2.814,0,0,0,9.1,9.939a8.9,8.9,0,0,0-2.618-.3H2.368Z" transform="translate(0 0.004)" fill="#fff"/>
      <path id="Path_96" data-name="Path 96" d="M17.383,11.555l2.03.249a4.968,4.968,0,0,1-1.781,2.76,5.342,5.342,0,0,1-3.294.979,5.342,5.342,0,0,1-4.024-1.567A6.108,6.108,0,0,1,8.835,9.6a6.393,6.393,0,0,1,1.5-4.523,5.111,5.111,0,0,1,3.9-1.62,4.95,4.95,0,0,1,3.811,1.5A6.268,6.268,0,0,1,19.52,9.383v.534h-8.6a4.345,4.345,0,0,0,1.086,2.9,3.17,3.17,0,0,0,2.4,1.015,2.849,2.849,0,0,0,1.852-.5A3.561,3.561,0,0,0,17.383,11.555ZM10.919,8.3h6.464a3.989,3.989,0,0,0-.748-2.19,2.992,2.992,0,0,0-2.422-1.122,3.134,3.134,0,0,0-2.279.908A3.561,3.561,0,0,0,10.919,8.3Z" transform="translate(6.889 2.697)" fill="#fff"/>
      <line id="Line_21" data-name="Line 21" x2="9.545" transform="translate(15.956 3.176)" fill="none" stroke="#fff" stroke-miterlimit="10" stroke-width="1"/>
    </g>
  </g>
</svg>
