<svg id="dribble-logo" xmlns="http://www.w3.org/2000/svg" width="21" height="21" viewBox="0 0 21 21">
  <g id="Group_40" data-name="Group 40">
    <path id="Path_97" data-name="Path 97" d="M10.5,21a10.119,10.119,0,0,1-4.077-.831A10.6,10.6,0,0,1,.831,14.577,10.119,10.119,0,0,1,0,10.5,10.119,10.119,0,0,1,.831,6.423,10.6,10.6,0,0,1,6.423.831,10.119,10.119,0,0,1,10.5,0a10.119,10.119,0,0,1,4.077.831,10.6,10.6,0,0,1,5.592,5.592A10.119,10.119,0,0,1,21,10.5a10.119,10.119,0,0,1-.831,4.077,10.6,10.6,0,0,1-5.592,5.592A10.12,10.12,0,0,1,10.5,21Zm8.86-9.065q-.114-.023-.615-.159a10.016,10.016,0,0,0-1.253-.239,15.538,15.538,0,0,0-1.72-.125,11.575,11.575,0,0,0-2.016.137q.433,1.207.752,2.289t.535,1.925q.216.843.319,1.412t.148.774a9.131,9.131,0,0,0,2.517-2.574A8.917,8.917,0,0,0,19.36,11.935Zm-5.352,6.833q-.046-.3-.182-.934T13.461,16.3q-.228-.9-.558-2t-.809-2.335a.093.093,0,0,1-.068.023,13.191,13.191,0,0,0-3.211,1.583A14.982,14.982,0,0,0,6.662,15.34a8.859,8.859,0,0,0-1.219,1.492l-.456.752a9.455,9.455,0,0,0,2.551,1.389,8.661,8.661,0,0,0,2.961.5A8.879,8.879,0,0,0,14.008,18.768ZM3.826,16.513q.068-.137.569-.866a12.732,12.732,0,0,1,1.424-1.663,17.3,17.3,0,0,1,2.243-1.879,11.17,11.17,0,0,1,3.075-1.515.564.564,0,0,1,.171-.057.565.565,0,0,0,.171-.057q-.182-.387-.364-.752t-.364-.752a26.722,26.722,0,0,1-3.28.763q-1.594.262-2.858.376t-2.1.125q-.831.011-.991.011v.273a8.631,8.631,0,0,0,.615,3.257A9.356,9.356,0,0,0,3.826,16.513Zm-2.1-7.835q.137,0,.866-.011t1.845-.114Q5.557,8.45,7,8.222t3.018-.638q-.569-.979-1.127-1.868T7.881,4.134q-.456-.695-.774-1.15T6.7,2.392A8.877,8.877,0,0,0,1.731,8.678ZM8.4,1.8q.091.114.421.569t.8,1.162q.467.706,1.025,1.606t1.1,1.9A11.225,11.225,0,0,0,13.8,6.07a12.359,12.359,0,0,0,1.435-1.014,7,7,0,0,0,.854-.82q.285-.342.353-.433a9.018,9.018,0,0,0-2.722-1.663A8.771,8.771,0,0,0,10.5,1.549,8.982,8.982,0,0,0,8.4,1.8Zm9.042,3.052q-.068.091-.4.467a9.186,9.186,0,0,1-.934.888A13.942,13.942,0,0,1,14.6,7.3a13.043,13.043,0,0,1-2.164,1.082q.159.319.308.649t.285.649q.046.114.1.228t.1.228a15.3,15.3,0,0,1,2.187-.114q1.07.023,1.936.1t1.435.182q.569.1.683.125a8.848,8.848,0,0,0-2.027-5.58Z" fill="#fff"/>
  </g>
</svg>
