<svg xmlns="http://www.w3.org/2000/svg" width="669" height="256" fill="none" viewBox="0 0 669 256">
  <defs/>
  <path fill="#fff" d="M493 80v16h60V80h-60zM564.74 116.32L553.43 105 511 147.43l11.31 11.31 42.43-42.42zM573 176h16v-60h-16v60z"/>
  <path fill="#fff" d="M109.44 145.96c-8.83 0-15.36-1.9-19.58-5.7-4.19-3.84-6.28-9.72-6.28-17.66 0-7.8 2.16-13.57 6.47-17.28 4.3-3.75 10.98-5.63 20.03-5.63 15.02 0 23.17 5.3 24.45 15.93h-6.02c-.55-3.62-2.34-6.29-5.37-8-3-1.75-7.34-2.62-13.06-2.62-7.17 0-12.37 1.39-15.62 4.16-3.2 2.73-4.8 7.23-4.8 13.5 0 6.36 1.58 10.95 4.74 13.76 3.16 2.82 8.26 4.23 15.3 4.23 12.2 0 18.68-3.95 19.45-11.84h6.08c-.51 5.63-2.98 9.9-7.42 12.8-4.4 2.9-10.52 4.35-18.37 4.35zM161.67 145.96c-6.83 0-11.86-1.43-15.1-4.29-3.2-2.9-4.8-7.4-4.8-13.5 0-6.02 1.61-10.46 4.86-13.31 3.24-2.86 8.25-4.3 15.04-4.3 6.7 0 11.67 1.46 14.91 4.36 3.24 2.86 4.86 7.27 4.86 13.25 0 6.06-1.62 10.54-4.86 13.44-3.2 2.9-8.17 4.35-14.91 4.35zm0-5.12c4.95 0 8.47-.98 10.56-2.94 2.09-1.97 3.13-5.21 3.13-9.73 0-4.48-1.04-7.68-3.13-9.6-2.1-1.92-5.61-2.88-10.56-2.88-4.9 0-8.45.98-10.63 2.94-2.17 1.96-3.26 5.14-3.26 9.54 0 4.48 1.09 7.72 3.26 9.73 2.18 1.96 5.72 2.94 10.63 2.94zM216.11 127.14v.64c5.2 1.11 7.8 3.87 7.8 8.26 0 6.61-6.03 9.92-18.1 9.92-11.95 0-18.22-3.75-18.82-11.27h5.89c.6 4.1 4.88 6.15 12.86 6.15 7.98 0 11.97-1.81 11.97-5.44 0-1.84-.94-3.16-2.81-3.97-1.84-.85-4.76-1.28-8.77-1.28h-8.45v-5.12h8.45c3.7 0 6.42-.38 8.13-1.15 1.7-.77 2.56-1.98 2.56-3.65 0-3.03-3.61-4.54-10.82-4.54-7.64 0-11.65 1.96-12.03 5.89h-6.02c.34-3.72 1.99-6.47 4.93-8.26 2.99-1.83 7.42-2.75 13.31-2.75 11.22 0 16.83 3.07 16.83 9.21 0 3.67-2.3 6.13-6.9 7.36zM264.7 111.53v28.41h3.97v15.81h-6.14V145h-28.87v10.75h-6.14v-15.8h3.84c3.2-2.6 4.8-8.07 4.8-16.4v-12.02h28.54zm-26.36 28.41h20.22v-23.36h-16.32v7.94c0 6.53-1.3 11.67-3.9 15.42zM290.28 110.57c5.46 0 9.52 1.06 12.16 3.2 2.65 2.13 3.97 5.4 3.97 9.79V145h-6.02v-5.82c-2.34 4.52-6.65 6.78-12.93 6.78-9.6 0-14.4-3.41-14.4-10.24 0-7.13 5.3-10.69 15.88-10.69 4.3 0 8.12.51 11.45 1.54v-3.01c0-2.73-.8-4.72-2.43-5.95-1.62-1.28-4.16-1.92-7.62-1.92-6.1 0-9.34 1.6-9.72 4.8h-5.7c.47-6.62 5.59-9.92 15.36-9.92zm-1.73 30.46c3.37 0 6.1-.66 8.2-1.98a7.44 7.44 0 003.64-5.44v-2.18a36.97 36.97 0 00-11.13-1.53c-6.75 0-10.12 1.94-10.12 5.82 0 3.54 3.14 5.31 9.41 5.31zM342.74 124.97v-13.44h6.01V145h-6.01v-14.98h-20.42V145h-6.01v-33.47h6.01v13.44h20.42zM376.98 145.96c-6.83 0-11.86-1.43-15.1-4.29-3.2-2.9-4.8-7.4-4.8-13.5 0-6.02 1.62-10.46 4.86-13.31 3.24-2.86 8.26-4.3 15.04-4.3 6.7 0 11.67 1.46 14.91 4.36 3.25 2.86 4.87 7.27 4.87 13.25 0 6.06-1.63 10.54-4.87 13.44-3.2 2.9-8.17 4.35-14.91 4.35zm0-5.12c4.95 0 8.47-.98 10.56-2.94 2.1-1.97 3.14-5.21 3.14-9.73 0-4.48-1.05-7.68-3.14-9.6s-5.61-2.88-10.56-2.88c-4.9 0-8.45.98-10.62 2.94-2.18 1.96-3.27 5.14-3.27 9.54 0 4.48 1.09 7.72 3.27 9.73 2.17 1.96 5.71 2.94 10.62 2.94zM450.61 127.14v.58c4.65 1.07 6.98 3.69 6.98 7.87 0 6.27-4.52 9.41-13.57 9.41h-19.84v-33.47h19.52c8.54 0 12.8 2.77 12.8 8.32a7.2 7.2 0 01-1.34 4.54c-.9 1.11-2.41 2.03-4.55 2.75zm-20.41-10.56v8.45h13.7c2.21 0 3.83-.32 4.86-.96 1.02-.68 1.53-1.77 1.53-3.26 0-2.82-2.34-4.23-7.04-4.23H430.2zm0 13.5v9.86h13.63c5.08 0 7.62-1.6 7.62-4.8 0-1.75-.62-3.03-1.86-3.84-1.24-.8-3.18-1.21-5.82-1.21H430.2z"/>
</svg>
