<svg xmlns="http://www.w3.org/2000/svg" width="2160.054" height="1606.971" viewBox="0 0 2160.054 1606.971">
  <g id="Group_3550" data-name="Group 3550" transform="translate(0.826 1066.626) rotate(-30)" opacity="0.3">
    <path id="Path_1344" data-name="Path 1344" stroke="#fff" d="M0,449.815S82.485,338.06,274.065,287.506,457.662,5.341,646.58.078s351.23,258.157,502.9,220.907,194.241,228.831,194.241,228.831" fill="none" transform="translate(407.352 345.691)" stroke-linecap="round" stroke-linejoin="round" stroke-width="1.178" stroke-dasharray="1.178 11.779"/>
    <path id="Path_1345" data-name="Path 1345" stroke="#fff" d="M0,456S60.414,346.032,233.112,288.986c7.584-2.492,15.442-5.286,23.769-7.774C442.808,225.635,444.46,7.41,646.376.128,830.843-6.525,991.2,249.233,1140.548,213.3c149.373-35.938,193.126,219.589,193.126,219.589" fill="none" transform="translate(428.536 338.991)" stroke-linecap="round" stroke-linejoin="round" stroke-width="1.178" stroke-dasharray="1.178 11.779"/>
    <path id="Path_1346" data-name="Path 1346" stroke="#fff" d="M0,462.185S45.149,344.776,215.806,283.754c7.479-2.647,15.3-5.985,23.892-8.843C419.986,214.93,431.093,9.215,646.172.17,826.2-7.4,984.595,240.221,1131.617,205.6c147.079-34.625,192.014,210.346,192.014,210.346" fill="none" transform="translate(449.72 332.298)" stroke-linecap="round" stroke-linejoin="round" stroke-width="1.178" stroke-dasharray="1.178 11.779"/>
    <path id="Path_1347" data-name="Path 1347" stroke="#fff" d="M0,468.353S29.732,343.107,198.5,278.51c7.369-2.82,15.154-6.674,24.015-9.911C397.21,204.776,417.582,10.731,645.967.2c175.6-8.1,332.019,231,476.72,197.688,144.785-33.311,190.9,201.1,190.9,201.1" fill="none" transform="translate(470.904 325.618)" stroke-linecap="round" stroke-linejoin="round" stroke-width="1.178" stroke-dasharray="1.178 11.779"/>
    <path id="Path_1348" data-name="Path 1348" stroke="#fff" d="M0,474.51S14.412,341.717,181.192,273.254c7.261-2.982,15-7.353,24.138-10.981C374.5,195.114,403.945,11.933,645.763.219c171.194-8.293,325.615,221.943,467.994,189.95,142.491-32,189.787,191.86,189.787,191.86" fill="none" transform="translate(492.089 318.95)" stroke-linecap="round" stroke-linejoin="round" stroke-width="1.178" stroke-dasharray="1.178 11.779"/>
    <path id="Path_1349" data-name="Path 1349" stroke="#fff" d="M0,480.652S-.909,340.327,163.884,267.983c7.155-3.141,14.843-8.019,24.262-12.049C351.865,185.892,390.2,12.792,645.557.224c166.807-8.211,319.213,212.89,459.269,182.21,140.2-30.684,188.674,182.618,188.674,182.618" fill="none" transform="translate(513.273 312.296)" stroke-linecap="round" stroke-linejoin="round" stroke-width="1.178" stroke-dasharray="1.178 11.779"/>
    <path id="Path_1350" data-name="Path 1350" stroke="#fff" d="M.448,487.444S-15.781,339.6,147.026,263.362c7.048-3.3,14.683-8.674,24.386-13.118C329.77,177.723,376.923-14.554,645.8.878,808.163,10.2,958.61,204.713,1096.345,175.349c137.9-29.371,187.56,173.375,187.56,173.375" fill="none" transform="translate(534.009 304.992)" stroke-linecap="round" stroke-linejoin="round" stroke-width="1.178" stroke-dasharray="1.178 11.779"/>
    <path id="Path_1351" data-name="Path 1351" stroke="#fff" d="M2.505,494.088s-31.548-155.35,129.271-235.5c6.941-3.458,14.523-9.316,24.509-14.186C309.38,169.761,365.269-17.905,647.653,1.383c157.886,10.785,306.4,194.782,441.817,166.732,135.61-28.057,186.448,164.133,186.448,164.133" fill="none" transform="translate(553.136 297.836)" stroke-linecap="round" stroke-linejoin="round" stroke-width="1.178" stroke-dasharray="1.178 11.779"/>
    <path id="Path_1352" data-name="Path 1352" stroke="#fff" d="M6.455,500.87S-40.41,338.027,118.419,253.962c6.834-3.618,14.363-9.948,24.632-15.255C290.981,162.253,355.489-21.262,651.4,2.027c153.412,12.074,300,185.728,433.092,158.991,133.315-26.743,185.333,154.89,185.333,154.89" fill="none" transform="translate(570.371 290.543)" stroke-linecap="round" stroke-linejoin="round" stroke-width="1.178" stroke-dasharray="1.178 11.779"/>
    <path id="Path_1353" data-name="Path 1353" stroke="#fff" d="M12.161,507.805s-62.178-170.322,94.657-258.321c6.727-3.775,14.208-10.565,24.756-16.323C274.441,155.175,347.456-24.623,656.9,2.824,805.842,16.035,950.5,179.5,1081.267,154.076c131.021-25.43,184.22,145.647,184.22,145.647" fill="none" transform="translate(585.849 283.096)" stroke-linecap="round" stroke-linejoin="round" stroke-width="1.178" stroke-dasharray="1.178 11.779"/>
    <path id="Path_1354" data-name="Path 1354" stroke="#fff" d="M19.389,514.9S-58.1,337.116,96.739,245.169c6.621-3.932,14.055-11.17,24.879-17.392C259.526,148.5,340.944-27.991,663.924,3.785,808.4,18,951.118,171.405,1079.565,147.3c128.727-24.117,183.107,136.4,183.107,136.4" fill="none" transform="translate(599.805 275.486)" stroke-linecap="round" stroke-linejoin="round" stroke-width="1.178" stroke-dasharray="1.178 11.779"/>
    <path id="Path_1355" data-name="Path 1355" stroke="#fff" d="M27.9,522.181s-92.79-185.242,60.043-281.148c6.514-4.088,13.909-11.761,25-18.46C246,142.22,335.727-31.365,672.234,4.923,812.255,20.021,953.025,163.49,1079.149,140.7c126.434-22.8,181.993,127.161,181.993,127.161" fill="none" transform="translate(612.474 267.697)" stroke-linecap="round" stroke-linejoin="round" stroke-width="1.178" stroke-dasharray="1.178 11.779"/>
    <path id="Path_1356" data-name="Path 1356" stroke="#fff" d="M37.5,529.648S-70.585,336.965,80.238,237.088c6.409-4.245,13.773-12.339,25.126-19.53C233.661,136.314,331.608-34.751,681.627,6.251,817.2,22.133,956.015,155.766,1079.818,134.287,1203.958,112.8,1260.7,252.2,1260.7,252.2" fill="none" transform="translate(624.06 259.718)" stroke-linecap="round" stroke-linejoin="round" stroke-width="1.178" stroke-dasharray="1.178 11.779"/>
    <path id="Path_1357" data-name="Path 1357" stroke="#fff" d="M48.011,537.319S-75.366,337.207,73.44,233.346c6.3-4.4,13.643-12.9,25.249-20.6C222.333,130.77,328.424-38.155,691.931,7.785,823.065,24.358,959.915,148.244,1081.4,128.08c121.846-20.176,179.767,108.676,179.767,108.676" fill="none" transform="translate(634.736 251.536)" stroke-linecap="round" stroke-linejoin="round" stroke-width="1.178" stroke-dasharray="1.178 11.779"/>
    <path id="Path_1358" data-name="Path 1358" stroke="#fff" d="M59.288,545.209S-79.371,337.68,67.41,229.823c6.2-4.554,13.524-13.452,25.372-21.667C211.874,125.584,326.042-41.584,703,9.537,829.71,26.72,964.585,140.942,1083.744,122.093,1203.3,103.23,1262.4,221.526,1262.4,221.526" fill="none" transform="translate(644.643 243.134)" stroke-linecap="round" stroke-linejoin="round" stroke-width="1.178" stroke-dasharray="1.178 11.779"/>
    <path id="Path_1359" data-name="Path 1359" stroke="#fff" d="M71.219,553.331S-82.713,338.4,62.034,226.533c6.092-4.709,13.418-13.985,25.5-22.734C202.17,120.745,324.357-45.048,714.731,11.522c122.291,17.721,255.177,122.352,372.013,104.817,117.258-17.55,177.54,90.19,177.54,90.19" fill="none" transform="translate(653.897 234.499)" stroke-linecap="round" stroke-linejoin="round" stroke-width="1.178" stroke-dasharray="1.178 11.779"/>
    <path id="Path_1360" data-name="Path 1360" stroke="#fff" d="M83.707,561.7S-85.487,339.372,57.215,223.494c5.988-4.863,13.325-14.5,25.619-23.8C193.122,116.255,323.282-48.557,727.013,13.757c117.89,18.2,248.775,113.3,363.288,97.078,114.964-16.236,176.427,80.948,176.427,80.948" fill="none" transform="translate(662.593 225.614)" stroke-linecap="round" stroke-linejoin="round" stroke-width="1.178" stroke-dasharray="1.178 11.779"/>
    <path id="Path_1361" data-name="Path 1361" stroke="#fff" d="M96.675,570.345s-184.446-229.72-43.8-349.624c5.883-5.017,13.249-15.006,25.742-24.872C184.652,112.111,322.754-52.128,739.776,16.258,853.28,34.872,982.147,120.5,1094.339,105.6c112.67-14.923,175.312,71.705,175.312,71.705" fill="none" transform="translate(670.81 216.463)" stroke-linecap="round" stroke-linejoin="round" stroke-width="1.178" stroke-dasharray="1.178 11.779"/>
    <path id="Path_1362" data-name="Path 1362" stroke="#fff" d="M110.058,579.269s-199.688-237.1-61.106-361.037c5.781-5.17,13.19-15.492,25.866-25.941C176.7,108.316,322.721-55.776,752.955,19.045c109.132,18.978,235.967,95.19,345.837,81.6,110.376-13.609,174.2,62.463,174.2,62.463" fill="none" transform="translate(678.611 207.027)" stroke-linecap="round" stroke-linejoin="round" stroke-width="1.178" stroke-dasharray="1.178 11.779"/>
    <path id="Path_1363" data-name="Path 1363" stroke="#fff" d="M123.8,588.5S-91.118,344.028,45.388,216.049c5.678-5.322,13.148-15.96,25.989-27.009C169.2,104.876,323.145-59.525,766.494,22.137,871.272,41.436,996.058,108.275,1103.605,96c108.082-12.3,173.086,53.22,173.086,53.22" fill="none" transform="translate(686.052 197.284)" stroke-linecap="round" stroke-linejoin="round" stroke-width="1.178" stroke-dasharray="1.178 11.779"/>
    <path id="Path_1364" data-name="Path 1364" stroke="#fff" d="M137.86,598.058S-92.279,346.221,42.14,214.2c5.575-5.476,13.128-16.415,26.112-28.078C162.116,101.8,324-63.4,780.349,25.558c100.445,19.579,223.16,77.083,328.385,66.12,105.788-10.983,171.972,43.977,171.972,43.977" fill="none" transform="translate(693.177 187.214)" stroke-linecap="round" stroke-linejoin="round" stroke-width="1.178" stroke-dasharray="1.178 11.779"/>
    <path id="Path_1365" data-name="Path 1365" stroke="#fff" d="M152.2,607.97S-93.149,348.774,39.17,212.694c5.472-5.628,13.13-16.849,26.235-29.147,90-84.455,259.865-250.971,729.074-154.216,96.132,19.823,216.757,68.029,319.661,58.381C1217.635,78.043,1285,122.446,1285,122.446" fill="none" transform="translate(700.024 176.791)" stroke-linecap="round" stroke-linejoin="round" stroke-width="1.178" stroke-dasharray="1.178 11.779"/>
    <path id="Path_1366" data-name="Path 1366" stroke="#fff" d="M166.778,618.263S-93.762,351.713,36.445,211.575C41.815,205.794,49.6,194.307,62.8,181.36c86.245-84.582,264.149-253,746.054-147.874,91.843,20.036,210.354,58.976,310.935,50.642,101.2-8.355,169.746,25.491,169.746,25.491" fill="none" transform="translate(706.627 165.985)" stroke-linecap="round" stroke-linejoin="round" stroke-width="1.178" stroke-dasharray="1.178 11.779"/>
    <path id="Path_1367" data-name="Path 1367" stroke="#fff" d="M181.578,628.972s-275.724-273.9-147.64-418.1c5.269-5.932,13.21-17.669,26.481-31.283C143,94.871,329.052-76.084,823.452,38.057c87.58,20.219,203.95,49.921,302.21,42.9,98.905-7.041,168.631,16.249,168.631,16.249" fill="none" transform="translate(713.011 154.766)" stroke-linecap="round" stroke-linejoin="round" stroke-width="1.178" stroke-dasharray="1.178 11.779"/>
    <path id="Path_1368" data-name="Path 1368" stroke="#fff" d="M196.492,640.132S-94.179,359.074,31.545,210.616c5.177-6.077,13.29-18.053,26.6-32.351C137.176,93.4,331.5-80.805,838.162,43.078c83.347,20.379,197.546,40.869,293.484,35.162,96.612-5.727,167.519,7.006,167.519,7.006" fill="none" transform="translate(719.282 143.094)" stroke-linecap="round" stroke-linejoin="round" stroke-width="1.178" stroke-dasharray="1.178 11.779"/>
    <path id="Path_1369" data-name="Path 1369" stroke="#fff" d="M211.7,651.786S-94.234,363.29,29.446,210.858c5.073-6.233,13.4-18.423,26.729-33.421C131.743,92.392,334.54-85.861,853.166,48.595c79.147,20.519,191.143,31.814,284.759,27.422,94.317-4.414,166.405-2.236,166.405-2.236" fill="none" transform="translate(725.257 130.928)" stroke-linecap="round" stroke-linejoin="round" stroke-width="1.178" stroke-dasharray="1.178 11.779"/>
    <path id="Path_1370" data-name="Path 1370" stroke="#fff" d="M227.069,663.985S-94.132,368.05,27.506,211.644c31.93-41.056,212.867-329.861,840.823-156.989,150.572,41.451,441.325,8.2,441.325,8.2" fill="none" transform="translate(731.074 118.217)" stroke-linecap="round" stroke-linejoin="round" stroke-width="1.178" stroke-dasharray="1.178 11.779"/>
    <path id="Path_1371" data-name="Path 1371" stroke="#fff" d="M196.938,666.49S-91.271,372.434,29.622,215.462c36.261-47.083,225.083-336.951,832.532-157.4,70.169,20.742,134.013,30.873,216.744,34.5,122.629,5.379,240.969-14.745,240.969-14.745" fill="none" transform="translate(724.353 109.589)" stroke-linecap="round" stroke-linejoin="round" stroke-width="1.178" stroke-dasharray="1.178 11.779"/>
    <path id="Path_1372" data-name="Path 1372" stroke="#fff" d="M167.277,667.482S-88.073,375.2,32.207,217.768C72.79,164.649,268.565-122.488,856.449,59.96c82.152,25.5,130.53,40.7,220.851,48.185,125.853,10.436,253.251-16.873,253.251-16.873" fill="none" transform="translate(717.164 102.474)" stroke-linecap="round" stroke-linejoin="round" stroke-width="1.178" stroke-dasharray="1.178 11.779"/>
    <path id="Path_1373" data-name="Path 1373" stroke="#fff" d="M138.213,667.544S-84.367,376.963,35.39,219.142C80.285,159.978,282.4-122.111,851.343,60.925c94.151,30.289,127,50.363,224.959,61.869,129.035,15.154,265.533-19,265.533-19" fill="none" transform="translate(709.375 96.29)" stroke-linecap="round" stroke-linejoin="round" stroke-width="1.178" stroke-dasharray="1.178 11.779"/>
    <path id="Path_1374" data-name="Path 1374" stroke="#fff" d="M109.948,667s-189.88-288.932-70.577-447.09C88.566,154.689,296.594-120.839,847.035,61.281,953.189,96.4,970.476,121.167,1076.1,136.832,1208.3,156.438,1353.914,115.7,1353.914,115.7" fill="none" transform="translate(700.789 90.715)" stroke-linecap="round" stroke-linejoin="round" stroke-width="1.178" stroke-dasharray="1.178 11.779"/>
    <path id="Path_1375" data-name="Path 1375" stroke="#fff" d="M82.788,666.027S-74.441,378.706,44.457,220.251c53.486-71.281,267.13-339.2,799.375-159.035,118.157,40,119.883,69.279,233.171,89.235,135.38,23.846,290.1-23.262,290.1-23.262" fill="none" transform="translate(691.097 85.561)" stroke-linecap="round" stroke-linejoin="round" stroke-width="1.178" stroke-dasharray="1.178 11.779"/>
    <path id="Path_1376" data-name="Path 1376" stroke="#fff" d="M57.233,664.758S-67.384,379.016,51.149,220.294c57.765-77.35,276.8-336.915,791.084-159.444,130.154,44.913,116.333,78.55,237.279,102.917,138.568,27.918,302.378-25.391,302.378-25.391" fill="none" transform="translate(679.8 80.708)" stroke-linecap="round" stroke-linejoin="round" stroke-width="1.178" stroke-dasharray="1.178 11.779"/>
    <path id="Path_1377" data-name="Path 1377" stroke="#fff" d="M34.13,663.265S-57.906,379.08,60.293,220.115c62.034-83.43,286.3-334.079,782.8-159.854,142.14,49.878,112.8,87.711,241.385,116.6,141.781,31.853,314.66-27.521,314.66-27.521" fill="none" transform="translate(666.051 76.077)" stroke-linecap="round" stroke-linejoin="round" stroke-width="1.178" stroke-dasharray="1.178 11.779"/>
    <path id="Path_1378" data-name="Path 1378" stroke="#fff" d="M15,661.6s-59.48-282.647,58.408-441.838C139.7,130.248,369.079-111.058,847.919,59.5c154.112,54.893,109.287,96.772,245.492,130.283,145.018,35.68,326.943-29.65,326.943-29.65" fill="none" transform="translate(648.326 71.616)" stroke-linecap="round" stroke-linejoin="round" stroke-width="1.178" stroke-dasharray="1.178 11.779"/>
    <path id="Path_1379" data-name="Path 1379" stroke="#fff" d="M2.66,659.812S-24.283,378.689,93.316,219.287c70.537-95.613,304.916-327.242,766.216-160.672,166.066,59.965,105.8,105.742,249.6,143.966,148.28,39.415,339.224-31.78,339.224-31.78" fill="none" transform="translate(623.818 67.285)" stroke-linecap="round" stroke-linejoin="round" stroke-width="1.178" stroke-dasharray="1.178 11.779"/>
    <path id="Path_1380" data-name="Path 1380" stroke="#fff" d="M0,657.919S5.576,378.308,122.9,218.708C197.674,116.99,436.979-104.7,880.827,57.624c178,65.1,102.346,114.632,253.706,157.65,151.568,43.078,351.505-33.909,351.505-33.909" fill="none" transform="translate(589.627 63.055)" stroke-linecap="round" stroke-linejoin="round" stroke-width="1.178" stroke-dasharray="1.178 11.779"/>
    <path id="Path_1381" data-name="Path 1381" stroke="#fff" d="M0,655.944s38.082-278.111,155.148-437.9c79-107.829,323.165-319.359,749.637-161.492C1094.695,126.852,1003.7,180,1162.6,227.886c154.885,46.679,363.788-36.039,363.788-36.039" fill="none" transform="translate(552.775 58.907)" stroke-linecap="round" stroke-linejoin="round" stroke-width="1.178" stroke-dasharray="1.178 11.779"/>
    <path id="Path_1382" data-name="Path 1382" stroke="#fff" d="M0,653.9S70.576,377.286,187.394,217.319c83.211-113.948,332.188-315.145,741.347-161.9,201.79,75.577,95.521,132.19,261.92,185.015,158.226,50.231,376.069-38.167,376.069-38.167" fill="none" transform="translate(515.924 54.823)" stroke-linecap="round" stroke-linejoin="round" stroke-width="1.178" stroke-dasharray="1.178 11.779"/>
    <path id="Path_1383" data-name="Path 1383" stroke="#fff" d="M0,651.812S103.059,376.679,219.64,216.539C307.054,96.463,560.8-94.249,952.7,54.228c213.638,80.941,92.154,140.875,266.026,198.7,161.592,53.739,388.351-40.3,388.351-40.3" fill="none" transform="translate(479.072 50.793)" stroke-linecap="round" stroke-linejoin="round" stroke-width="1.178" stroke-dasharray="1.178 11.779"/>
    <path id="Path_1384" data-name="Path 1384" stroke="#fff" d="M0,649.677s135.534-273.653,251.887-433.96C343.492,89.506,601.969-90.6,976.656,53c225.448,86.4,88.814,149.5,270.133,212.381,164.98,57.212,400.633-42.426,400.633-42.426" fill="none" transform="translate(442.221 46.805)" stroke-linecap="round" stroke-linejoin="round" stroke-width="1.178" stroke-dasharray="1.178 11.779"/>
    <path id="Path_1385" data-name="Path 1385" stroke="#fff" d="M0,647.509S168,375.331,284.133,214.862C379.918,82.507,643.1-86.884,1000.613,51.733c237.214,91.973,85.5,158.081,274.24,226.065,168.392,60.656,412.915-44.556,412.915-44.556" fill="none" transform="translate(405.368 42.85)" stroke-linecap="round" stroke-linejoin="round" stroke-width="1.178" stroke-dasharray="1.178 11.779"/>
    <path id="Path_1386" data-name="Path 1386" stroke="#fff" d="M0,645.314S200.462,374.606,316.379,213.98C416.333,75.474,684.185-83.114,1024.569,50.441c248.929,97.672,82.222,166.612,278.346,239.747,171.824,64.073,425.2-46.684,425.2-46.684" fill="none" transform="translate(368.517 38.922)" stroke-linecap="round" stroke-linejoin="round" stroke-width="1.178" stroke-dasharray="1.178 11.779"/>
    <path id="Path_1387" data-name="Path 1387" stroke="#fff" d="M0,643.1S232.918,373.856,348.626,213.076C452.738,68.411,725.24-79.294,1048.526,49.129c260.582,103.514,78.965,175.1,282.454,253.431,175.275,67.47,437.478-48.814,437.478-48.814" fill="none" transform="translate(331.665 35.015)" stroke-linecap="round" stroke-linejoin="round" stroke-width="1.178" stroke-dasharray="1.178 11.779"/>
    <path id="Path_1388" data-name="Path 1388" stroke="#fff" d="M0,640.866S265.367,373.087,380.871,212.158C489.13,61.325,766.26-75.43,1072.483,47.8c272.164,109.524,75.734,183.549,286.56,267.113,178.746,70.849,449.76-50.943,449.76-50.943" fill="none" transform="translate(294.814 31.124)" stroke-linecap="round" stroke-linejoin="round" stroke-width="1.178" stroke-dasharray="1.178 11.779"/>
    <path id="Path_1389" data-name="Path 1389" stroke="#fff" d="M0,638.623S297.813,372.3,413.119,211.228C525.512,54.22,807.249-71.526,1096.44,46.462c283.662,115.732,72.527,191.963,290.667,280.8,182.235,74.21,462.043-53.074,462.043-53.074" fill="none" transform="translate(257.962 27.244)" stroke-linecap="round" stroke-linejoin="round" stroke-width="1.178" stroke-dasharray="1.178 11.779"/>
    <path id="Path_1390" data-name="Path 1390" stroke="#fff" d="M0,636.374S330.255,371.513,445.365,210.293C561.883,47.1,848.206-67.585,1120.4,45.116c295.058,122.169,69.345,200.345,294.775,294.479,185.738,77.56,474.323-55.2,474.323-55.2" fill="none" transform="translate(221.11 23.37)" stroke-linecap="round" stroke-linejoin="round" stroke-width="1.178" stroke-dasharray="1.178 11.779"/>
    <path id="Path_1391" data-name="Path 1391" stroke="#fff" d="M0,634.123S362.692,370.718,477.611,209.354C598.242,39.973,889.129-63.61,1144.354,43.769c306.33,128.881,66.182,208.7,298.88,308.162,189.258,80.9,486.606-57.332,486.606-57.332" fill="none" transform="translate(184.259 19.498)" stroke-linecap="round" stroke-linejoin="round" stroke-width="1.178" stroke-dasharray="1.178 11.779"/>
    <path id="Path_1392" data-name="Path 1392" stroke="#fff" d="M0,631.875S395.126,369.923,509.858,208.418C634.59,32.839,930.018-59.6,1168.311,42.424c317.453,135.921,63.042,217.019,302.988,321.845,192.792,84.225,498.887-59.461,498.887-59.461" fill="none" transform="translate(147.407 15.624)" stroke-linecap="round" stroke-linejoin="round" stroke-width="1.178" stroke-dasharray="1.178 11.779"/>
    <path id="Path_1393" data-name="Path 1393" stroke="#fff" d="M0,629.634s427.557-260.5,542.1-422.143C670.925,25.705,970.867-55.568,1192.267,41.087c328.39,143.36,59.923,225.317,307.095,335.528,196.339,87.545,511.169-61.591,511.169-61.591" fill="none" transform="translate(110.555 11.742)" stroke-linecap="round" stroke-linejoin="round" stroke-width="1.178" stroke-dasharray="1.178 11.779"/>
    <path id="Path_1394" data-name="Path 1394" stroke="#fff" d="M0,627.439S459.755,368.226,574.351,206.609C706.983,18.421,1011.675-51.467,1216.224,39.8c339.089,151.288,56.821,233.592,311.2,349.21,199.9,90.857,523.452-63.72,523.452-63.72" fill="none" transform="translate(73.703 7.813)" stroke-linecap="round" stroke-linejoin="round" stroke-width="1.178" stroke-dasharray="1.178 11.779"/>
    <path id="Path_1395" data-name="Path 1395" stroke="#fff" d="M0,625.212S492.294,367.528,606.6,205.7C743.424,11.376,1052.431-47.391,1240.181,38.472c349.486,159.828,53.738,241.846,315.308,362.894,203.472,94.161,535.732-65.85,535.732-65.85" fill="none" transform="translate(36.852 3.918)" stroke-linecap="round" stroke-linejoin="round" stroke-width="1.178" stroke-dasharray="1.178 11.779"/>
    <path id="Path_1396" data-name="Path 1396" stroke="#fff" d="M0,623.007S524.834,366.854,638.844,204.8C779.867,4.353,1093.129-43.29,1264.138,37.171c359.487,169.141,50.671,250.078,319.415,376.576,207.056,97.462,548.014-67.978,548.014-67.978" fill="none" transform="translate(0 0)" stroke-linecap="round" stroke-linejoin="round" stroke-width="1.178" stroke-dasharray="1.178 11.779"/>
  </g>
</svg>
