<svg xmlns="http://www.w3.org/2000/svg" width="25" height="14" viewBox="0 0 25 14">
  <path id="Shape" d="M13.726,13.941a1.28,1.28,0,0,0,.682-.293,1.058,1.058,0,0,0,.2-.645s-.028-1.967.9-2.258,2.095,1.9,3.344,2.744a2.4,2.4,0,0,0,1.66.5l3.339-.046s1.746-.106.918-1.454A11.022,11.022,0,0,0,22.3,9.669C20.2,7.761,20.482,8.07,23,4.77c1.536-2.009,2.15-3.236,1.958-3.76-.182-.5-1.312-.368-1.312-.368L19.89.664A.869.869,0,0,0,19.4.748a1.043,1.043,0,0,0-.333.4,21.155,21.155,0,0,1-1.388,2.877c-1.674,2.789-2.343,2.937-2.617,2.764-.637-.4-.478-1.623-.478-2.488,0-2.7.418-3.831-.813-4.123A6.535,6.535,0,0,0,12.022,0,8.269,8.269,0,0,0,8.9.316c-.428.205-.758.664-.556.69a1.7,1.7,0,0,1,1.109.547,3.505,3.505,0,0,1,.372,1.67s.221,3.183-.517,3.578c-.506.271-1.2-.282-2.694-2.813A23.343,23.343,0,0,1,5.274,1.258,1.1,1.1,0,0,0,4.964.847,1.556,1.556,0,0,0,4.387.619L.815.642S.278.656.081.885c-.175.2-.013.624-.013.624s2.8,6.423,5.963,9.66a8.667,8.667,0,0,0,6.2,2.773Z" fill="#949599"/>
</svg>
